<?xml version="1.0" standalone="no"?>
<!DOCTYPE svg PUBLIC "-//W3C//DTD SVG 20010904//EN"
 "http://www.w3.org/TR/2001/REC-SVG-20010904/DTD/svg10.dtd">
<svg version="1.0" xmlns="http://www.w3.org/2000/svg"
 width="1290.000000pt" height="1417.000000pt" viewBox="0 0 1290.000000 1417.000000"
 preserveAspectRatio="xMidYMid meet">
<metadata>
Created by potrace 1.16, written by Peter Selinger 2001-2019
</metadata>
<g transform="translate(0.000000,1417.000000) scale(0.100000,-0.100000)"
fill="#000000" stroke="none">
<path d="M0 12767 l0 -1402 21 -13 c12 -8 18 -16 15 -19 -3 -3 -12 0 -21 7
-13 11 -15 1 -14 -81 1 -53 6 -100 13 -108 8 -11 8 -13 -1 -7 -17 10 -17 -35
0 -53 10 -11 10 -13 0 -7 -10 6 -13 -12 -13 -72 0 -83 14 -112 53 -112 10 0
14 -5 11 -15 -4 -10 0 -15 14 -15 11 0 23 -6 25 -12 4 -10 8 -9 16 2 6 8 11
20 11 25 0 6 -4 4 -9 -4 -7 -11 -12 -8 -26 13 -9 14 -21 24 -25 21 -5 -3 -11
-1 -15 5 -3 5 1 10 9 10 19 0 20 11 3 29 -10 11 -9 13 5 8 10 -3 20 -2 24 4 3
6 17 15 32 20 17 7 22 13 15 20 -12 12 -58 2 -74 -17 -14 -17 -35 -18 -45 -2
-5 7 -2 9 9 5 9 -3 21 1 29 10 11 14 11 16 -3 11 -19 -7 -39 9 -39 31 0 11 3
11 13 -4 11 -15 16 -16 23 -4 13 22 12 52 -2 75 -8 11 -11 23 -8 27 8 8 34
-18 34 -33 0 -6 5 -8 10 -5 5 3 10 2 10 -2 0 -5 6 -18 14 -29 14 -18 15 -17
14 14 -1 17 -5 32 -10 32 -5 0 -6 4 -3 10 3 5 0 7 -8 4 -10 -4 -14 2 -14 20
-1 29 9 33 26 13 17 -22 74 -9 85 19 4 11 1 14 -13 9 -11 -3 -22 -1 -26 5 -3
5 -1 10 4 10 6 0 11 6 11 14 0 8 6 16 12 18 9 3 8 9 -4 21 -9 10 -14 25 -11
37 6 23 23 27 23 5 0 -8 5 -15 10 -15 6 0 10 5 10 12 0 9 3 9 11 1 6 -6 13
-41 15 -78 2 -36 9 -76 15 -88 9 -20 9 -20 -4 -4 -18 22 -31 22 -23 1 6 -15 4
-15 -11 -3 -17 13 -17 13 0 -14 21 -33 10 -63 -28 -73 -14 -3 -23 -10 -20 -14
3 -5 1 -11 -5 -15 -17 -10 -11 -28 6 -21 14 6 15 4 4 -9 -11 -14 -10 -17 8
-22 12 -3 22 -10 22 -15 0 -6 -7 -8 -14 -5 -10 4 -13 1 -10 -8 3 -7 1 -23 -5
-34 -8 -14 -8 -22 0 -26 6 -4 8 -13 5 -21 -7 -18 26 -35 45 -23 22 14 29 11
29 -12 0 -15 -5 -19 -17 -15 -22 7 -50 -8 -34 -18 13 -8 15 -52 3 -60 -4 -2
-14 0 -22 6 -12 8 -12 9 3 4 22 -7 22 5 -3 36 -12 16 -16 28 -10 34 6 6 2 10
-11 11 -19 2 -21 -2 -16 -33 4 -25 2 -34 -8 -34 -8 0 -13 -9 -12 -19 1 -12 6
-17 16 -13 10 4 13 1 8 -10 -4 -11 2 -18 16 -23 l22 -8 -22 -4 c-13 -2 -23
-11 -23 -19 0 -8 -4 -14 -10 -14 -5 0 -10 -11 -10 -25 0 -14 -6 -25 -12 -25
-10 0 -9 -3 1 -9 7 -5 10 -14 7 -20 -4 -6 0 -11 9 -11 13 0 12 -4 -5 -22 -12
-13 -17 -24 -12 -26 12 -4 -19 -102 -33 -102 -13 0 -13 -100 0 -100 6 0 2 -5
-7 -11 -19 -11 -25 -39 -8 -39 6 0 10 -15 11 -32 0 -18 3 -27 6 -20 5 13 23 7
23 -9 0 -6 -10 -9 -23 -7 -16 2 -21 9 -19 26 2 12 -1 22 -6 22 -5 0 -9 -18 -9
-40 0 -21 -5 -46 -12 -53 -6 -8 -8 -22 -5 -32 4 -10 1 -20 -6 -25 -11 -7 -11
-11 -1 -23 9 -11 9 -17 1 -22 -6 -4 -9 -14 -6 -22 4 -9 2 -21 -4 -28 -6 -7
-13 -49 -16 -93 -5 -75 -4 -81 15 -87 12 -3 21 -13 21 -22 0 -12 -3 -13 -13
-4 -19 15 -27 4 -27 -39 0 -29 4 -36 20 -37 11 -1 18 2 15 8 -4 5 -2 9 4 9 6
0 8 -12 5 -29 -4 -16 -1 -32 5 -35 13 -9 15 -26 2 -26 -5 0 -12 13 -16 29 -8
37 -35 31 -34 -8 0 -14 3 -20 6 -13 8 20 26 14 20 -7 -3 -12 1 -22 9 -25 8 -3
14 -11 14 -17 0 -7 -11 -2 -25 11 l-25 23 0 -99 c0 -65 4 -104 12 -112 9 -9 9
-12 0 -12 -19 0 -16 -99 3 -106 8 -4 15 -11 15 -16 0 -6 -7 -8 -15 -5 -12 5
-14 -25 -14 -205 1 -116 4 -206 8 -199 5 8 12 7 27 -3 18 -14 18 -16 2 -33
-11 -10 -18 -13 -18 -5 0 7 -4 12 -9 12 -14 0 -11 -303 3 -312 8 -6 7 -8 -1
-8 -9 0 -13 -17 -13 -50 0 -40 3 -48 15 -44 11 5 13 2 9 -10 -3 -9 -10 -16
-15 -16 -5 0 -9 -1757 -9 -4200 l0 -4201 137 3 137 3 16 45 c9 25 22 46 31 48
8 1 34 -11 57 -28 23 -16 45 -30 49 -30 5 0 19 -9 33 -20 44 -34 57 -22 15 14
-22 19 -36 38 -32 42 4 4 7 2 7 -4 0 -7 5 -12 11 -12 6 0 24 -13 40 -30 l30
-29 211 0 c202 1 213 2 230 21 10 12 18 16 18 9 0 -7 4 -9 10 -6 6 3 7 -1 4
-9 -7 -19 7 -21 24 -4 9 9 15 10 20 2 9 -14 213 -15 230 -2 8 7 12 7 12 -1 0
-8 52 -11 175 -11 158 0 176 2 173 16 -2 10 3 19 11 22 9 3 11 -1 6 -17 -5
-18 -2 -21 22 -21 l28 1 -31 27 c-16 16 -28 35 -25 43 4 12 2 12 -12 1 -14
-12 -20 -11 -41 5 -34 25 -51 53 -32 53 8 0 17 -8 19 -17 4 -15 5 -15 6 -2 1
20 58 34 76 19 9 -8 14 -4 18 12 4 12 4 24 2 27 -3 2 -5 -2 -5 -10 0 -12 -2
-11 -11 1 -8 11 -12 12 -16 3 -9 -23 -23 -14 -23 14 0 14 -3 23 -7 19 -5 -4
-8 -16 -8 -27 0 -10 -4 -18 -9 -18 -5 0 -13 -5 -18 -13 -7 -10 -8 -8 -7 7 4
48 0 57 -23 52 -20 -6 -20 -4 5 19 30 28 34 36 12 28 -9 -4 -15 0 -15 7 0 11
-3 11 -10 -1 -8 -13 -10 -12 -10 3 0 12 -4 16 -12 10 -22 -13 -38 -12 -38 3 0
8 -5 14 -10 14 -6 0 -15 10 -20 23 l-9 22 0 -24 c-1 -13 -4 -21 -8 -18 -5 6
-8 20 -12 61 -1 4 -10 6 -22 3 -20 -5 -20 -5 -3 14 9 10 14 22 11 26 -4 3 -7
1 -7 -5 0 -19 -30 -14 -37 5 -4 10 -11 21 -17 25 -8 5 -7 13 2 28 17 28 16 28
-25 32 -33 3 -36 6 -38 32 0 16 -6 31 -13 34 -7 2 -12 12 -12 23 0 10 -7 19
-15 19 -8 0 -22 16 -31 36 -9 20 -23 38 -30 41 -7 2 -10 11 -7 19 3 9 -1 14
-12 14 -28 0 -60 21 -45 30 7 4 11 12 9 18 -2 6 -14 3 -27 -8 -22 -18 -22 -20
-6 -44 9 -14 14 -33 10 -41 -6 -16 -36 -21 -36 -5 0 5 -7 7 -17 3 -13 -5 -15
-2 -11 15 4 14 2 20 -5 15 -6 -4 -8 -1 -5 8 4 10 -1 15 -13 16 -11 1 -19 -5
-19 -13 0 -8 5 -14 10 -14 6 0 10 -4 10 -10 0 -5 -7 -10 -15 -10 -10 0 -15 11
-15 35 0 24 -5 35 -15 35 -8 0 -15 4 -15 8 0 4 -13 16 -30 25 -16 10 -30 24
-30 31 0 8 -8 17 -17 21 -17 6 -17 7 0 16 13 8 22 7 33 -1 17 -15 18 -7 1 23
-6 12 -12 23 -13 25 -4 9 -34 -13 -34 -24 0 -18 -14 -18 -29 0 -7 8 -8 17 -3
20 12 7 12 56 1 56 -5 0 -8 6 -6 13 1 7 -10 13 -25 15 -17 2 -28 9 -28 19 0 9
-6 13 -14 10 -10 -4 -19 5 -28 24 -7 16 -16 29 -21 29 -4 0 -5 14 -2 32 5 26
1 35 -20 53 -24 18 -26 25 -20 58 4 21 18 53 31 73 13 19 24 40 24 45 0 6 9
22 20 36 11 14 20 32 20 40 0 7 18 50 39 96 22 45 59 123 82 172 37 79 107
213 219 420 50 94 151 267 171 297 11 15 19 32 19 37 0 5 27 49 61 98 116 168
209 312 209 322 0 5 33 31 72 56 40 26 86 61 101 78 l28 32 -5 -105 c-3 -66
-1 -99 4 -89 5 9 10 58 12 109 2 88 4 95 35 136 18 24 58 56 90 74 32 18 83
46 113 62 85 47 218 131 263 167 134 108 414 405 488 517 10 16 34 52 54 79
54 75 125 184 125 193 0 4 11 23 24 43 13 19 45 77 72 129 26 52 58 111 71
130 13 19 23 44 23 55 0 12 16 37 36 56 30 28 191 261 231 333 8 15 12 16 19
5 15 -24 17 -1434 2 -1679 -16 -267 -16 -1231 0 -1375 7 -55 16 -215 22 -355
6 -140 17 -367 24 -505 8 -137 15 -286 16 -330 0 -44 6 -143 11 -220 6 -77 12
-194 15 -260 3 -66 7 -126 9 -132 3 -9 29 -13 81 -13 l76 0 -6 133 c-4 72 -11
161 -16 196 -5 35 -14 211 -20 390 -6 179 -15 342 -20 361 -10 40 -41 620 -45
850 -2 85 -6 211 -9 280 -12 223 -13 550 -4 790 4 129 10 496 12 815 2 319 4
583 5 587 2 12 35 -4 50 -25 26 -37 269 -177 307 -177 14 0 46 -35 38 -42 -3
-4 13 -4 35 -1 22 3 48 2 58 -2 10 -5 20 -9 23 -10 3 -1 18 -7 33 -13 16 -7
34 -12 42 -12 8 0 26 -5 42 -12 78 -31 243 -70 306 -70 37 0 67 -2 67 -3 0 -2
-7 -16 -15 -31 -17 -33 -20 -64 -5 -64 6 0 10 -4 10 -9 0 -14 -51 -23 -65 -11
-11 9 -12 7 -8 -9 3 -12 9 -21 14 -21 5 0 9 -4 9 -10 0 -16 -27 -12 -34 5 -5
14 -8 14 -29 0 -26 -17 -37 -12 -37 17 0 11 -4 17 -10 13 -5 -3 -7 -12 -3 -20
3 -9 0 -22 -7 -30 -9 -10 -9 -15 -1 -15 6 0 11 6 12 13 0 6 4 2 9 -11 10 -22
-5 -62 -22 -62 -5 0 -8 -8 -8 -17 0 -15 4 -13 20 7 16 20 22 23 37 14 10 -6
20 -19 22 -29 3 -18 2 -18 -23 -2 -28 19 -33 12 -12 -15 7 -10 21 -18 30 -18
16 0 21 -11 9 -23 -3 -4 -14 0 -24 9 -16 15 -20 14 -43 -3 -26 -19 -34 -47
-16 -58 6 -4 8 -11 4 -16 -9 -15 -36 12 -31 30 5 20 -35 22 -52 3 -10 -10 -6
-14 18 -18 24 -5 29 -11 27 -32 -2 -14 -10 -30 -18 -36 -10 -7 -12 -18 -7 -31
12 -32 10 -37 -12 -30 -15 5 -19 4 -15 -4 4 -6 3 -11 -3 -11 -5 0 -12 6 -14
13 -3 7 -6 5 -6 -5 -1 -9 9 -24 21 -32 12 -9 16 -16 9 -16 -7 0 -11 -6 -8 -14
3 -8 1 -17 -6 -19 -9 -3 -9 -8 1 -18 18 -19 16 -53 -3 -45 -20 7 -19 0 4 -21
14 -13 17 -23 10 -33 -8 -13 -10 -13 -19 0 -5 8 -10 11 -10 5 1 -19 26 -44 53
-50 15 -4 27 -3 28 1 0 5 2 18 4 28 6 34 -7 40 -21 10 l-12 -29 3 32 c2 18 -1
35 -6 38 -5 4 -9 11 -9 17 0 6 3 9 6 5 4 -3 15 4 24 16 10 12 22 18 26 14 5
-4 2 -12 -5 -17 -12 -7 -12 -11 2 -24 20 -20 46 -21 53 -1 4 8 12 15 20 15 8
0 14 5 14 11 0 5 5 7 10 4 6 -3 10 -1 10 6 0 7 10 9 25 7 14 -3 25 -1 25 3 0
5 -12 9 -26 9 -18 0 -25 4 -21 14 3 8 -3 23 -14 34 -18 20 -26 72 -12 85 12
13 32 -27 22 -45 -5 -10 -6 -18 -1 -18 5 0 15 -11 22 -25 16 -29 30 -33 30 -7
0 9 16 34 35 55 40 43 42 49 18 40 -17 -6 -17 -5 0 14 22 26 22 32 -3 26 -11
-3 -20 -9 -20 -14 0 -13 -28 -11 -36 3 -4 6 -2 14 4 16 7 2 12 10 12 18 0 8 7
14 16 14 11 0 14 5 10 16 -4 9 -1 23 5 30 9 11 7 14 -11 14 -18 0 -21 -4 -17
-21 5 -17 3 -19 -6 -10 -19 19 5 46 42 45 39 -2 40 12 1 34 -16 9 -30 25 -30
35 0 9 -6 17 -13 17 -8 0 -18 15 -24 34 -9 30 -8 33 7 29 10 -3 22 -14 28 -26
6 -12 11 -16 11 -9 1 7 6 10 11 7 6 -3 10 -1 10 4 0 12 26 15 33 4 2 -5 3 -3
1 3 -1 6 2 16 8 22 8 8 7 13 -6 18 -16 6 -16 7 0 19 9 6 14 17 10 23 -11 19
-26 14 -19 -5 3 -11 -2 -7 -13 7 -25 33 -28 59 -8 67 11 4 23 -2 35 -18 21
-28 24 -26 33 22 6 35 5 36 -19 31 -14 -2 -25 0 -25 5 0 5 33 17 73 27 112 28
220 92 303 178 39 40 73 80 76 88 3 8 9 12 13 8 5 -5 -13 -35 -38 -68 -26 -33
-47 -62 -47 -64 0 -2 9 -2 20 1 12 3 20 0 20 -7 0 -9 7 -7 20 5 24 21 31 17
24 -12 -3 -11 -17 -26 -32 -32 -20 -10 -23 -14 -12 -21 8 -5 18 -6 22 -4 14 9
9 -7 -13 -37 l-20 -29 20 0 c15 0 21 -7 22 -22 2 -39 8 -81 17 -118 5 -20 4
-53 -1 -75 -5 -22 -7 -62 -4 -88 2 -26 1 -50 -3 -52 -4 -3 -5 -25 -3 -49 3
-25 2 -53 -2 -63 -11 -24 -6 -66 8 -75 9 -5 9 -10 0 -19 -8 -8 -9 -19 -2 -36
5 -13 9 -56 8 -96 0 -76 3 -111 16 -189 6 -41 5 -48 -9 -48 -20 0 -20 -4 3
-70 11 -30 24 -95 29 -145 13 -108 18 -138 33 -213 6 -31 13 -68 14 -82 5 -37
44 -202 54 -225 4 -11 20 -69 34 -130 23 -92 66 -199 116 -285 5 -8 16 -32 24
-52 9 -21 46 -71 82 -112 36 -41 65 -79 65 -85 0 -5 4 -11 9 -13 5 -1 49 -40
99 -86 109 -100 136 -122 152 -122 7 0 29 -13 50 -30 21 -16 42 -30 48 -30 6
0 63 -27 129 -60 65 -33 124 -60 131 -60 7 0 37 -11 66 -24 30 -14 71 -28 92
-32 22 -3 44 -10 49 -14 6 -5 35 -11 65 -15 30 -4 62 -11 70 -15 8 -4 57 -11
108 -15 51 -4 95 -12 98 -16 3 -5 11 -6 17 -2 7 4 62 8 122 9 135 2 352 27
460 54 85 21 193 57 210 70 6 4 28 13 50 20 22 7 85 34 140 60 103 49 166 94
345 247 25 21 54 46 65 55 74 63 306 295 353 353 31 38 64 76 72 85 15 16 55
66 87 108 10 13 26 32 35 42 29 33 88 119 88 130 0 5 3 10 8 10 4 0 12 9 17
20 6 11 32 55 58 97 99 159 207 356 222 403 4 14 18 41 31 60 13 20 37 72 53
117 17 44 44 109 62 144 43 86 54 112 82 194 37 106 87 265 87 276 0 6 6 25
14 42 25 57 65 201 75 274 6 39 10 114 9 165 l-1 93 -7 -110 c-7 -115 -26
-209 -41 -199 -5 3 -9 14 -9 25 0 10 -4 19 -10 19 -5 0 -19 9 -30 20 -16 16
-20 17 -20 5 0 -8 -7 -15 -15 -15 -15 0 -10 29 8 41 14 10 -1 29 -17 23 -15
-6 -32 58 -20 77 4 8 -1 9 -17 4 -13 -3 -32 -9 -41 -11 -13 -4 -18 1 -19 18
l0 23 -10 -25 c-13 -31 -13 -32 -33 -24 -9 3 -16 17 -16 29 0 40 -19 38 -26
-2 -5 -25 -3 -38 5 -41 6 -2 11 -12 11 -23 0 -12 -5 -16 -15 -13 -8 4 -15 1
-15 -5 0 -6 7 -11 15 -11 18 0 19 -12 3 -28 -9 -9 -9 -12 0 -12 7 0 12 -7 12
-15 0 -8 -4 -15 -10 -15 -5 0 -10 5 -10 12 0 6 -3 9 -6 6 -3 -3 0 -15 7 -27
15 -23 5 -41 -13 -23 -19 19 -41 15 -35 -7 3 -12 0 -18 -9 -17 -27 4 -27 17 0
41 16 14 26 25 21 25 -4 0 -2 7 5 15 7 9 10 19 6 23 -4 4 -12 -1 -17 -11 -6
-9 -15 -14 -21 -11 -6 4 -14 0 -19 -7 -7 -12 -11 -11 -25 3 -15 15 -15 16 2
15 14 -2 19 5 19 22 0 13 -6 26 -13 29 -7 2 -10 -2 -6 -12 3 -9 1 -16 -5 -16
-11 0 -13 4 -15 58 0 18 -7 37 -15 41 -9 6 -11 18 -7 34 8 32 -4 40 -38 27
-21 -8 -26 -7 -26 6 0 10 6 14 14 11 21 -8 26 2 16 29 -6 15 -6 24 0 24 15 0
12 37 -2 43 -10 4 -10 6 -1 6 7 1 10 8 6 16 -3 9 2 22 13 30 17 13 17 16 4 25
-8 5 -21 8 -27 5 -14 -5 -17 7 -5 19 10 11 9 156 -2 156 -4 0 -5 -7 -2 -16 3
-8 2 -12 -4 -9 -14 8 -13 45 1 45 7 0 6 8 -4 23 -10 16 -13 38 -10 72 5 42 4
47 -11 42 -13 -5 -16 0 -16 28 0 18 5 37 10 40 13 8 13 62 0 70 -8 5 -7 11 1
21 10 12 8 18 -7 30 -14 11 -15 17 -7 20 14 6 8 49 -9 70 -4 6 -6 18 -2 27 3
8 1 18 -5 22 -18 10 -13 45 7 45 16 1 16 1 0 14 -20 15 -24 66 -7 83 7 7 8 19
4 30 -4 10 -9 27 -10 38 -13 106 -16 153 -17 237 -2 105 -11 78 98 289 16 33
32 58 35 55 8 -8 659 -10 829 -2 96 5 182 9 190 9 50 1 306 -26 310 -32 5 -8
99 -27 165 -35 92 -11 217 -37 232 -49 7 -5 19 -7 28 -4 8 4 38 -1 66 -9 28
-9 62 -13 74 -10 13 3 25 2 27 -4 2 -5 17 -12 33 -14 44 -7 177 -51 234 -78
45 -21 49 -26 49 -55 -1 -18 -5 -33 -10 -33 -4 0 -8 -5 -8 -11 0 -6 7 -8 17
-5 9 4 23 -1 33 -12 14 -14 14 -20 4 -30 -19 -17 -23 -15 -17 11 5 21 5 21
-12 5 -22 -20 -13 -48 15 -48 22 0 26 -10 9 -27 -6 -6 -9 -26 -7 -44 2 -26 8
-34 23 -34 12 0 20 7 20 17 0 18 43 63 52 55 3 -4 -8 -18 -23 -32 -25 -22 -26
-25 -8 -20 15 4 24 0 28 -10 4 -13 1 -15 -14 -10 -12 4 -26 -1 -38 -13 -21
-21 -35 -82 -19 -82 6 0 7 -3 4 -6 -4 -4 -14 -1 -23 6 -13 12 -17 11 -24 0 -5
-8 -12 -11 -16 -7 -4 3 -2 12 3 19 6 7 13 26 17 42 6 26 5 28 -8 17 -9 -8 -16
-19 -16 -27 0 -7 -10 -23 -22 -34 -13 -12 -23 -26 -24 -33 0 -7 -2 -21 -3 -32
-1 -15 -3 -17 -10 -7 -13 21 -22 -27 -10 -50 6 -11 8 -22 5 -25 -3 -3 -8 2
-12 11 -9 22 -24 20 -24 -4 0 -11 -7 -20 -15 -20 -8 0 -15 5 -15 11 0 5 -4 8
-9 5 -5 -4 -20 -2 -33 3 l-23 10 22 6 c12 4 19 13 17 20 -7 17 -44 7 -44 -12
0 -8 -5 -11 -11 -8 -6 4 -16 -1 -23 -11 -13 -17 -15 -17 -40 -1 -23 16 -30 15
-28 -4 1 -4 -8 -15 -18 -24 -29 -26 -25 -32 23 -29 23 1 34 0 24 -3 -9 -2 -15
-8 -13 -12 3 -4 -4 -7 -16 -7 -29 1 -33 -19 -6 -32 21 -10 21 -10 -9 -9 -31 2
-39 14 -34 49 0 4 -8 6 -19 5 -10 -1 -17 -4 -14 -8 6 -10 -6 -39 -16 -39 -5 0
-6 8 -3 19 3 10 0 22 -6 25 -17 11 -13 24 9 31 28 9 25 19 -10 32 -23 9 -30 9
-28 0 3 -16 -28 -94 -42 -102 -5 -3 -10 -1 -10 4 0 6 5 11 10 11 6 0 10 6 10
14 0 10 -7 13 -21 11 -30 -6 -69 15 -75 42 -7 26 -14 29 -32 11 -9 -9 -12 -8
-12 4 0 9 6 18 12 20 8 3 4 9 -10 17 -26 14 -42 7 -42 -18 0 -10 -6 -24 -14
-30 -11 -9 -18 -6 -34 14 -12 15 -23 21 -27 15 -3 -5 -11 -10 -17 -10 -7 0 -6
5 2 15 7 8 10 25 6 40 -4 14 -2 25 4 25 5 0 10 5 10 10 0 6 -12 10 -26 10 -17
0 -23 -4 -18 -12 18 -29 13 -98 -7 -98 -6 0 -7 9 -4 20 5 14 2 20 -9 20 -9 0
-16 -7 -16 -16 0 -11 -6 -14 -22 -9 -37 11 -41 22 -19 44 22 22 20 41 -4 41
-7 0 -16 -6 -18 -12 -4 -10 -8 -9 -16 2 -9 13 -12 12 -17 -7 -4 -15 -11 -20
-22 -16 -12 5 -14 2 -8 -12 4 -11 4 -16 0 -13 -3 4 -16 -2 -27 -13 -21 -19
-21 -19 -33 10 -7 16 -17 32 -23 36 -9 5 -9 11 1 22 11 14 10 15 -9 9 -27 -9
-42 13 -20 29 21 15 22 26 2 19 -9 -4 -15 0 -15 10 0 9 -7 16 -15 16 -19 0
-20 -26 0 -34 12 -4 13 -11 5 -31 -13 -34 -13 -38 4 -32 17 7 36 -11 36 -34 0
-10 5 -19 12 -21 9 -3 9 -6 0 -12 -7 -4 -12 -2 -12 3 0 14 -37 14 -46 0 -11
-18 -24 12 -13 32 6 12 5 20 -1 24 -6 4 -8 11 -5 16 4 5 1 9 -6 9 -9 0 -9 3 0
14 15 18 -5 34 -22 17 -6 -6 -16 -11 -21 -11 -6 0 -5 4 3 9 11 7 9 11 -8 20
-22 12 -41 7 -41 -10 0 -6 5 -7 10 -4 6 3 10 0 10 -8 0 -8 -7 -17 -15 -21 -8
-3 -15 -12 -15 -21 0 -21 -23 -14 -34 10 -8 18 -10 17 -15 -10 -6 -28 -8 -29
-18 -10 -5 11 -8 25 -6 31 2 7 -11 14 -29 18 -18 3 -46 13 -61 21 -30 15 -55
11 -74 -14 -8 -11 -12 -12 -13 -3 0 20 -21 14 -27 -8 -3 -11 -10 -17 -16 -13
-6 3 -23 7 -39 8 -24 2 -28 -2 -28 -26 0 -21 -5 -27 -19 -26 -12 1 -17 6 -13
15 3 8 -1 18 -9 23 -11 7 -11 9 -1 9 7 0 20 7 28 15 13 13 11 14 -18 8 -30 -6
-32 -5 -19 10 12 15 11 17 -3 17 -9 0 -16 -5 -16 -11 0 -5 -5 -7 -11 -3 -8 5
-10 -4 -7 -30 3 -26 1 -35 -8 -32 -9 3 -11 -1 -7 -12 6 -15 5 -15 -10 -3 -9 7
-15 17 -12 21 3 5 0 12 -6 16 -6 3 -15 1 -19 -6 -5 -8 -9 -5 -13 10 -7 27 -31
21 -35 -8 -2 -12 -8 -22 -14 -22 -6 0 -5 -7 3 -17 12 -14 12 -16 -1 -11 -16 5
-17 20 -5 53 8 19 6 18 -17 -2 -13 -13 -28 -23 -32 -23 -13 0 -43 35 -50 58
-4 12 -12 22 -17 22 -12 0 -12 -27 1 -35 17 -11 11 -25 -11 -25 -11 0 -18 -3
-16 -7 3 -5 -10 -8 -28 -8 -20 0 -31 4 -28 11 2 7 0 15 -5 18 -6 3 -8 15 -5
25 5 21 -12 37 -22 21 -11 -18 -23 -11 -18 11 5 17 2 20 -18 17 -13 -1 -24
-10 -24 -18 0 -8 6 -14 13 -12 6 1 12 -4 12 -10 -1 -16 -24 -48 -35 -48 -4 0
-2 7 6 16 8 10 9 18 2 22 -6 4 -13 17 -17 30 -4 12 -12 22 -17 22 -13 0 -11
-7 8 -36 15 -24 15 -26 -5 -47 l-22 -21 0 32 c0 18 -4 32 -10 32 -5 0 -10 -4
-10 -10 0 -5 -7 -10 -15 -10 -9 0 -12 6 -8 17 4 10 2 14 -4 10 -6 -4 -13 -2
-15 5 -4 10 -10 10 -29 1 -14 -6 -32 -8 -40 -4 -8 4 -23 7 -34 7 -17 -1 -20
-7 -17 -38 2 -28 -1 -38 -11 -38 -8 0 -18 -7 -21 -16 -4 -11 -2 -15 8 -11 8 3
17 -1 20 -10 4 -8 12 -13 20 -10 11 4 11 0 -2 -25 -12 -25 -13 -40 -4 -77 7
-29 7 -52 1 -63 -8 -14 -4 -24 15 -41 17 -16 22 -27 15 -34 -13 -13 58 -75
121 -106 25 -12 50 -26 55 -30 37 -29 164 -97 182 -97 12 0 24 -4 27 -8 3 -5
31 -15 63 -22 32 -7 63 -17 69 -22 6 -4 14 -5 17 -1 4 3 12 1 19 -4 7 -6 30
-16 52 -23 44 -14 216 -102 261 -133 17 -12 34 -27 38 -35 9 -14 48 -32 82
-38 36 -6 139 -34 160 -44 11 -5 47 -16 80 -24 77 -19 150 -43 201 -67 23 -10
44 -19 47 -19 20 0 211 -94 238 -116 8 -8 20 -14 26 -14 10 0 150 -91 203
-131 14 -11 68 -52 120 -92 115 -87 250 -220 349 -344 45 -57 81 -93 93 -93
10 0 18 -7 18 -15 0 -8 7 -15 15 -15 9 0 30 -8 48 -17 35 -18 175 -42 248 -43
46 0 186 -39 237 -66 15 -8 32 -14 38 -14 22 0 140 -41 199 -69 33 -16 103
-45 155 -66 52 -20 123 -50 158 -67 63 -30 113 -35 55 -5 -17 9 -35 27 -39 39
-7 26 -72 136 -91 156 -7 7 -13 19 -13 26 0 8 -6 19 -13 25 -8 6 -19 28 -25
49 -7 22 -23 55 -36 75 -13 19 -27 46 -31 58 -4 13 -25 65 -47 114 -99 220
-118 268 -118 296 0 12 5 19 13 16 6 -2 11 -11 9 -21 -2 -9 3 -16 10 -16 7 0
27 -14 45 -30 18 -17 36 -30 42 -30 5 0 14 -6 18 -13 4 -7 24 -24 43 -37 19
-13 38 -29 42 -35 14 -23 58 -65 67 -65 5 0 23 -12 40 -26 17 -14 35 -22 41
-19 15 9 40 -14 40 -36 0 -23 16 -25 24 -3 5 13 11 12 38 -8 45 -32 133 -73
151 -70 4 1 7 -8 7 -19 0 -17 3 -19 13 -10 8 6 17 8 20 4 4 -3 7 228 7 515 0
313 -4 523 -9 527 -16 9 -41 66 -41 91 0 12 11 36 25 52 l25 30 0 961 0 961
-87 1 c-255 1 -328 -2 -342 -16 -12 -12 -9 -13 18 -9 l32 5 -20 -20 c-25 -25
-26 -37 -6 -45 11 -4 13 -16 8 -51 -5 -38 -3 -45 11 -45 30 0 18 -37 -19 -54
-39 -19 -54 -36 -31 -36 9 0 16 -4 16 -10 0 -5 -10 -10 -22 -10 -21 0 -21 0
-2 -22 14 -16 15 -20 4 -16 -13 5 -16 -6 -17 -61 -1 -40 3 -69 10 -73 9 -6 9
-8 0 -8 -9 0 -10 -7 -2 -27 5 -14 7 -39 4 -54 -3 -15 -1 -30 4 -34 17 -10 13
-30 -9 -56 l-20 -24 0 65 c0 88 -20 263 -33 275 -13 13 6 -250 22 -312 11 -37
-4 -73 -37 -89 -43 -21 -74 -59 -112 -137 -58 -117 -43 -109 -198 -102 -114 5
-138 3 -152 -10 -14 -13 -43 -16 -137 -16 -66 0 -126 3 -135 6 -8 3 -22 20
-32 38 -67 125 -95 185 -96 204 0 12 -6 24 -12 26 -10 4 -10 6 0 6 9 1 12 27
12 98 0 114 -9 120 -12 8 -3 -66 -6 -79 -20 -81 -10 -1 -18 2 -18 8 0 6 -6 5
-15 -2 -12 -10 -15 -10 -15 4 0 9 5 16 11 16 5 0 -2 11 -18 24 -27 23 -27 25
-30 152 -3 148 -11 216 -26 211 -29 -9 -77 152 -55 181 7 8 7 16 -1 25 -14 18
-4 27 28 27 23 1 24 2 8 11 -11 7 -68 9 -155 5 -178 -6 -173 -6 -167 -16 3 -5
1 -18 -4 -28 -11 -20 -48 -23 -59 -5 -4 6 -19 9 -34 7 -18 -2 -32 4 -41 16
-10 15 -31 21 -88 25 l-74 6 25 -21 c20 -18 21 -20 5 -14 -11 4 -30 7 -42 7
-13 -1 -23 2 -23 5 0 3 14 34 31 69 27 55 34 63 59 63 16 0 31 3 33 8 3 4 8
59 11 122 13 250 19 300 37 300 11 0 4 -154 -7 -172 -4 -6 -1 -9 7 -6 10 3 16
36 21 123 5 65 13 122 18 125 6 4 13 30 17 58 4 39 2 54 -11 67 -9 10 -14 26
-11 38 12 51 47 316 66 492 11 105 22 204 25 220 22 144 32 535 13 535 -6 0
-9 6 -6 14 7 19 -46 233 -62 249 -15 15 -6 -39 16 -101 17 -46 12 -62 -15 -45
-10 6 -16 20 -14 33 2 12 -1 20 -6 16 -13 -8 -22 53 -11 81 6 17 5 21 -6 16
-12 -4 -15 5 -15 41 0 32 5 48 15 52 23 9 18 26 -6 19 -18 -6 -19 -5 -10 13
15 29 14 42 -4 36 -8 -4 -15 -2 -15 4 0 6 5 12 10 14 12 4 -10 158 -22 158
-11 0 -10 -64 2 -94 6 -16 5 -48 -1 -88 -13 -86 -16 -94 -36 -95 -10 -1 -27
-3 -38 -5 -25 -4 -32 27 -34 152 -2 133 -25 302 -91 665 -11 66 -25 129 -29
140 -5 11 -18 61 -29 110 -32 143 -52 218 -61 229 -5 6 -14 35 -20 65 -6 30
-18 68 -25 85 -8 17 -19 47 -25 67 -6 20 -20 53 -31 74 -11 22 -20 47 -20 56
0 9 -6 22 -14 28 -8 7 -17 24 -21 39 -12 50 -61 173 -107 267 -27 56 -97 173
-166 278 -49 75 -54 76 -122 31 -19 -13 -39 -24 -45 -24 -5 1 -32 35 -60 78
-27 42 -65 96 -82 119 -38 50 -38 54 -17 180 9 51 13 104 10 117 -5 22 -61 96
-154 204 -20 24 -39 49 -41 55 -10 27 -374 378 -387 373 -8 -3 -20 -9 -28 -12
-8 -3 -22 3 -32 14 -30 31 -77 52 -96 41 -11 -6 -19 -5 -24 2 -4 6 1 16 10 21
24 13 20 21 -19 42 -27 15 -38 16 -48 7 -15 -12 -47 -5 -47 10 0 5 11 11 25
15 14 3 22 10 19 16 -3 5 -13 7 -21 4 -9 -4 -21 -2 -27 3 -7 6 -25 9 -42 8
-23 -2 -30 2 -32 20 -3 17 -11 23 -40 25 -34 3 -37 6 -37 33 0 29 -2 30 -45
30 -40 0 -45 2 -44 23 0 12 -5 22 -13 22 -7 0 -13 -6 -13 -14 0 -25 -26 -66
-36 -56 -6 6 -17 -2 -29 -20 -20 -31 -45 -40 -45 -17 0 6 -22 -12 -49 -40 -27
-29 -57 -53 -68 -53 -10 0 -29 -8 -42 -17 -14 -9 -36 -17 -50 -19 -14 -1 -41
-5 -60 -10 -26 -5 -33 -4 -29 7 4 13 72 36 134 46 25 4 31 9 27 24 -7 25 -28
24 -53 -1 -31 -31 -60 -26 -60 8 0 25 4 29 31 30 67 2 38 12 -34 12 -73 0 -77
1 -77 23 0 21 -4 22 -57 19 -42 -3 -55 -1 -48 7 6 6 30 12 54 13 34 1 47 7 65
31 35 44 53 30 22 -16 -28 -41 -34 -63 -13 -50 6 4 22 6 35 4 12 -1 22 3 22 9
0 7 -8 9 -21 5 -38 -12 -16 18 29 40 44 21 56 45 22 45 -24 0 -25 2 -2 38 9
16 23 27 29 25 7 -3 13 0 13 6 0 6 -7 11 -15 11 -11 0 -14 7 -9 24 6 25 -20
45 -29 22 -7 -17 -112 -49 -137 -41 -25 8 -26 22 -1 30 12 3 18 12 15 20 -9
21 15 55 39 56 16 1 17 3 5 6 -9 2 -36 -5 -59 -16 -24 -12 -58 -21 -76 -21
-29 0 -33 3 -33 25 l0 25 -92 -6 c-51 -3 -105 -7 -120 -9 -15 -2 -30 0 -33 5
-3 6 -23 10 -44 10 -31 0 -40 -4 -44 -22 -5 -17 -9 -19 -20 -10 -8 7 -33 11
-56 10 -39 -1 -42 -3 -36 -25 6 -26 -2 -29 -28 -9 -14 11 -15 15 -5 19 9 4 7
6 -4 6 -15 1 -47 41 -33 41 13 0 -22 28 -44 35 -12 3 -20 12 -18 18 4 12 31
18 80 17 17 0 27 5 27 14 0 9 9 20 20 26 11 6 17 16 14 22 -5 7 -15 2 -30 -15
-27 -32 -44 -35 -44 -7 0 15 -7 20 -28 20 -29 0 -62 29 -62 55 0 11 11 15 42
15 58 0 44 7 -23 12 -30 3 -60 8 -66 11 -15 9 -59 -8 -66 -25 -4 -10 -8 -10
-16 2 -9 12 -11 11 -11 -8 0 -14 -4 -20 -10 -17 -6 4 -22 -1 -37 -10 -31 -21
-50 -8 -34 23 13 24 -3 42 -21 24 -6 -6 -17 -8 -24 -5 -8 3 -14 0 -14 -7 0 -9
-13 -11 -45 -8 -25 3 -47 2 -50 -2 -4 -6 -56 -5 -105 3 -8 1 -30 12 -47 25
-19 13 -38 20 -45 16 -7 -4 -4 2 6 14 14 17 28 21 58 19 21 -2 41 1 45 5 3 5
11 7 18 4 7 -2 16 2 19 11 5 12 16 14 51 9 l45 -7 0 35 c0 37 -9 42 -63 36
-10 -1 -29 6 -42 14 -13 9 -30 13 -38 10 -22 -8 -28 10 -14 40 11 24 17 27 55
24 23 -2 42 0 42 4 0 4 6 5 14 2 8 -3 17 -1 20 5 4 6 -22 10 -74 9 -67 0 -79
-2 -69 -14 9 -11 6 -16 -15 -24 -17 -6 -26 -17 -26 -30 0 -33 -47 -89 -69 -83
-10 3 -22 0 -25 -6 -4 -6 -14 -11 -23 -11 -13 0 -13 3 -3 15 7 8 20 15 30 15
26 0 73 59 60 75 -5 6 -7 14 -4 18 3 3 -2 17 -12 32 -16 24 -19 25 -29 11 -17
-22 -34 -20 -46 7 -8 19 -9 18 -5 -9 5 -33 -2 -74 -13 -74 -3 0 -12 4 -19 8
-10 7 -9 15 4 41 15 30 11 59 -4 34 -4 -7 -24 -19 -43 -27 -32 -13 -35 -18
-31 -45 7 -47 -22 -40 -38 9 -7 22 -16 40 -19 40 -4 0 -8 15 -9 33 -1 17 -5
40 -8 50 -3 9 0 17 6 17 6 0 8 5 5 10 -4 6 -10 8 -15 5 -5 -3 -11 -1 -14 4 -7
11 -24 9 -53 -7 -30 -17 -71 -12 -66 8 2 8 -1 21 -6 29 -7 12 -13 12 -24 3
-11 -9 -22 -9 -46 -1 -25 9 -43 9 -72 0 -33 -10 -42 -9 -55 4 -16 16 -54 21
-54 7 0 -16 23 -30 38 -25 10 4 13 1 10 -8 -3 -8 -11 -14 -19 -14 -8 0 -19 -8
-25 -19 -7 -12 -14 -15 -18 -8 -8 14 -36 4 -36 -12 0 -15 -107 -67 -125 -60
-27 11 -24 30 5 26 32 -5 50 15 24 25 -10 4 -19 2 -22 -5 -2 -6 -9 -9 -17 -6
-7 3 -16 1 -20 -5 -8 -14 -45 -14 -45 -1 0 6 8 13 18 16 28 10 78 34 69 34
-22 0 -97 -23 -97 -31 0 -5 -8 -9 -17 -10 -10 0 -31 -9 -48 -20 -16 -10 -40
-24 -52 -30 -13 -7 -23 -19 -23 -27 0 -11 -3 -12 -14 -3 -11 10 -21 9 -45 -3
-16 -9 -33 -20 -36 -26 -4 -6 -10 -8 -14 -5 -5 2 -14 -8 -21 -23 -7 -16 -15
-22 -17 -14 -8 20 -32 14 -26 -7 3 -14 -2 -20 -24 -24 -15 -3 -50 -26 -77 -51
-27 -26 -51 -46 -53 -46 -3 0 -16 -13 -30 -30 -13 -16 -33 -30 -43 -30 -10 0
-30 -13 -43 -30 -37 -44 -62 -37 -37 10 7 13 5 27 -7 50 -15 32 -16 32 -32 14
-24 -29 -54 -51 -78 -58 -20 -6 -23 -4 -23 17 0 14 7 27 15 31 8 3 15 12 15
20 0 7 7 27 15 42 8 16 15 40 14 54 0 24 -1 24 -9 4 -7 -17 -15 -20 -41 -16
-25 4 -31 2 -27 -9 4 -9 -4 -19 -19 -26 -24 -11 -24 -11 -18 20 l6 32 -21 -24
c-11 -13 -20 -29 -20 -35 0 -7 -11 -36 -25 -64 -14 -29 -25 -56 -25 -62 0 -5
-9 -14 -20 -20 -11 -6 -20 -19 -20 -30 0 -10 -3 -20 -7 -22 -17 -7 -73 -88
-88 -126 -9 -22 -25 -42 -36 -45 -22 -6 -25 3 -7 21 6 6 9 15 5 18 -10 10 -47
-26 -47 -46 0 -29 -21 -80 -31 -74 -5 3 -6 16 -3 30 3 13 2 24 -4 24 -5 0 -13
-16 -16 -35 -4 -19 -11 -35 -16 -35 -13 0 -45 -32 -53 -53 -3 -9 -12 -14 -20
-11 -10 4 -13 -3 -9 -26 4 -30 4 -30 -42 -30 -47 0 -55 7 -34 28 16 16 2 28
-16 13 -11 -9 -14 -3 -14 36 0 27 -1 63 -1 81 -1 17 -5 32 -10 32 -9 0 -31
-76 -31 -108 0 -11 -7 -25 -15 -32 -8 -7 -20 -38 -27 -69 -14 -69 -50 -122
-70 -103 -14 14 -16 84 -7 197 4 39 5 57 2 40 -2 -16 -7 -37 -10 -45 -3 -8 -7
-22 -9 -30 -2 -8 -10 -20 -20 -27 -12 -9 -16 -28 -16 -78 0 -54 -4 -67 -19
-76 -11 -5 -19 -17 -20 -27 0 -9 -3 -12 -5 -5 -3 7 -1 20 4 30 5 10 6 27 2 38
-6 17 -9 14 -14 -15 -3 -19 -7 -53 -8 -75 -2 -27 -8 -41 -19 -43 -14 -3 -17
10 -18 84 -1 95 -13 126 -31 78 -6 -16 -8 -30 -3 -31 4 -2 8 -41 7 -87 l0 -84
-56 -56 c-31 -31 -60 -56 -64 -56 -14 -1 -54 -37 -54 -49 0 -6 -6 -11 -12 -11
-13 0 -38 -44 -38 -67 0 -20 -21 -16 -47 9 l-23 21 -47 -49 c-160 -165 -319
-350 -385 -449 -15 -22 -41 -59 -57 -83 -17 -23 -31 -47 -31 -52 0 -6 -7 -10
-15 -10 -26 0 -18 -45 10 -58 14 -6 25 -16 25 -22 0 -5 9 -19 21 -31 16 -16
19 -27 13 -52 -10 -47 -55 -157 -64 -157 -5 0 -8 25 -8 56 1 65 -21 102 -23
38 -4 -138 -7 -152 -45 -220 -74 -134 -84 -155 -84 -175 0 -28 -20 -24 -94 21
-72 44 -76 45 -76 29 0 -6 -31 -66 -68 -133 -110 -194 -103 -179 -170 -411
-21 -75 -87 -271 -107 -320 -7 -16 -18 -55 -25 -85 -6 -30 -15 -64 -20 -75 -5
-11 -16 -54 -24 -95 -9 -41 -23 -100 -31 -130 -8 -30 -15 -64 -15 -75 0 -11
-6 -40 -15 -65 -8 -25 -30 -117 -50 -205 -20 -88 -46 -191 -57 -230 -36 -130
-51 -180 -59 -195 -19 -38 -49 -120 -49 -134 0 -8 -7 -35 -14 -58 -8 -24 -20
-83 -26 -133 -6 -49 -19 -124 -30 -165 -18 -72 -42 -190 -55 -275 -3 -22 -8
-104 -10 -183 -4 -132 -13 -182 -34 -182 -17 0 -80 -71 -75 -84 4 -11 0 -13
-14 -9 -14 3 -24 -2 -32 -17 -7 -13 -47 -58 -89 -101 -94 -96 -111 -116 -111
-129 0 -6 -7 -10 -15 -10 -8 0 -15 -9 -15 -20 0 -11 -14 -29 -33 -41 -18 -12
-45 -39 -61 -61 -15 -21 -34 -38 -42 -38 -7 0 -19 -9 -26 -19 -6 -10 -16 -17
-22 -15 -6 2 -16 -6 -21 -18 -6 -13 -20 -24 -32 -26 -13 -2 -23 -9 -23 -15 -1
-16 -78 -69 -90 -62 -5 3 -17 -6 -26 -20 -9 -14 -24 -25 -34 -25 -10 0 -27
-11 -37 -24 -10 -13 -28 -26 -40 -30 -11 -4 -28 -15 -38 -26 -10 -11 -24 -20
-31 -20 -8 0 -20 -14 -29 -30 -9 -16 -21 -30 -29 -30 -7 0 -28 -19 -46 -42
-19 -24 -40 -47 -47 -51 -16 -10 -53 -85 -53 -107 0 -9 -4 -20 -8 -26 -5 -5
-15 -36 -22 -69 -7 -33 -17 -68 -22 -78 -5 -9 -11 -41 -14 -70 -3 -28 -9 -56
-12 -62 -4 -5 -7 -14 -7 -20 0 -14 -34 -114 -51 -152 -8 -17 -14 -34 -14 -38
0 -3 -11 -31 -25 -61 -14 -30 -25 -59 -25 -65 0 -5 -15 -42 -33 -82 -19 -40
-42 -93 -51 -119 -9 -25 -23 -49 -31 -52 -9 -3 -12 -12 -8 -22 4 -11 -1 -22
-12 -30 -27 -20 -42 -17 -48 7 -3 12 -10 18 -17 14 -8 -5 -7 -12 4 -24 9 -10
16 -27 16 -39 0 -11 4 -24 10 -27 12 -7 -9 -62 -36 -93 -13 -16 -21 -19 -31
-10 -10 8 -13 7 -13 -3 -1 -10 -4 -8 -11 4 -5 9 -19 17 -29 17 -30 0 -31 15
-4 39 17 15 24 29 21 42 -3 10 -1 19 4 19 6 0 2 11 -8 24 -10 13 -21 19 -24
14 -4 -6 -9 -5 -14 2 -5 8 -1 18 9 26 11 8 13 14 7 19 -16 9 -31 -3 -31 -26 0
-10 -4 -19 -10 -19 -13 0 -13 1 5 44 16 39 24 43 44 24 11 -11 11 -9 2 10 -8
14 -8 22 -1 22 10 0 12 -7 14 -45 1 -11 7 -19 14 -17 6 1 12 -2 12 -8 0 -5 7
-10 15 -10 8 0 15 4 15 10 0 9 57 44 74 45 5 0 11 6 14 14 4 11 0 12 -14 6
-31 -13 -67 -11 -72 4 -3 10 1 12 17 8 11 -3 19 -1 15 4 -3 5 -14 9 -25 9 -10
0 -19 7 -19 15 0 8 5 15 10 15 16 0 12 18 -10 40 -28 28 -48 25 -21 -3 19 -21
20 -25 6 -37 -10 -9 -12 -16 -5 -25 7 -8 1 -11 -25 -11 -27 1 -34 4 -29 16 11
29 12 64 0 82 -9 15 -8 21 4 28 11 7 12 12 3 21 -17 17 -39 -27 -22 -47 9 -11
8 -14 -9 -14 -18 0 -19 4 -12 36 5 20 13 41 19 47 17 17 13 27 -9 27 -42 0
-14 42 29 44 17 1 31 6 31 14 0 18 17 15 40 -8 16 -16 18 -25 10 -40 -7 -12
-7 -21 0 -25 5 -3 11 -3 11 2 1 4 2 13 4 18 1 6 3 21 4 35 2 24 2 24 16 6 10
-13 19 -16 24 -10 12 11 2 64 -11 64 -6 0 -7 -7 -4 -16 4 -10 1 -14 -6 -12
-23 8 -21 38 1 38 12 0 21 5 21 10 0 15 -7 13 -56 -16 l-44 -26 0 27 c0 22 4
26 19 22 14 -3 18 -1 14 11 -5 12 -1 14 19 10 23 -4 25 -3 15 13 -8 13 -13 15
-19 6 -6 -9 -8 -9 -8 2 0 7 -6 11 -14 8 -18 -7 -25 11 -20 44 5 26 -31 106
-40 90 -3 -5 -3 -16 0 -25 3 -9 1 -16 -5 -16 -6 0 -11 5 -11 10 0 6 -4 10 -9
10 -5 0 -8 -15 -6 -34 3 -29 0 -34 -16 -33 -12 1 -15 5 -9 11 16 16 12 24 -12
28 -12 2 -24 10 -26 18 -5 13 -3 13 11 1 15 -12 17 -10 18 15 1 16 1 33 0 37
-3 16 30 19 42 4 10 -14 15 -14 30 -3 15 12 16 14 2 20 -19 7 -20 26 0 26 8 0
15 7 15 15 0 8 10 19 21 26 27 14 42 -4 35 -43 -3 -17 0 -28 9 -32 11 -4 14 4
12 34 -1 23 -7 42 -15 45 -7 3 -10 9 -7 15 4 6 -5 10 -19 10 -16 0 -26 6 -26
15 0 8 -7 15 -15 15 -8 0 -15 9 -15 20 0 11 -6 20 -14 20 -8 0 -16 10 -18 23
-2 14 -9 21 -20 19 -19 -3 -33 14 -18 23 5 3 10 2 10 -3 0 -13 33 -11 47 4 11
10 10 16 -3 28 -10 11 -11 16 -3 16 8 0 6 7 -6 20 -10 11 -15 28 -12 39 6 24
-37 69 -48 51 -5 -7 -12 -2 -21 16 -10 19 -11 31 -4 38 5 5 10 7 10 2 0 -13
30 22 39 46 9 26 4 48 -11 48 -6 0 -8 -3 -5 -7 8 -7 -11 -33 -24 -33 -5 0 -6
7 -3 15 4 10 0 15 -15 15 -34 0 -24 26 16 41 l36 14 -36 40 c-36 39 -37 40
-37 14 0 -19 7 -29 22 -34 18 -5 19 -8 8 -12 -8 -4 -20 -13 -27 -22 -7 -9 -13
-12 -13 -7 0 13 -31 -16 -41 -39 -7 -14 -7 -10 -3 15 8 53 14 70 24 70 5 0 11
-8 13 -17 3 -12 5 -10 6 7 1 34 -9 70 -21 70 -5 0 -7 -8 -4 -18 5 -15 1 -19
-24 -19 -23 0 -29 4 -26 16 3 9 8 28 12 44 9 38 22 34 18 -5 -3 -32 -2 -32 8
-8 5 14 14 33 20 43 11 23 1 38 -12 17 -5 -8 -12 -12 -15 -8 -4 3 -1 15 6 26
10 16 16 18 31 9 10 -7 18 -18 18 -25 0 -8 6 -12 14 -9 10 4 13 -2 13 -21 -1
-15 -5 -30 -10 -33 -4 -3 -1 -12 8 -19 12 -10 15 -10 15 4 0 12 9 16 35 16 19
0 35 5 35 11 0 7 -10 9 -26 5 -19 -5 -25 -3 -22 6 3 7 10 13 16 13 7 0 12 5
12 10 0 19 -25 10 -38 -15 l-13 -25 3 25 c2 14 -4 30 -12 37 -8 6 -12 14 -9
18 4 3 14 -2 24 -11 14 -15 18 -15 31 -3 12 13 10 17 -19 34 -28 17 -30 17
-18 1 13 -16 12 -17 -15 -10 -39 9 -44 13 -44 32 0 14 -4 13 -18 -5 -12 -16
-21 -20 -31 -14 -12 8 -12 12 2 25 8 9 23 16 33 16 13 0 14 3 5 14 -10 12 -8
17 7 25 11 6 23 26 26 45 4 20 14 40 24 45 9 5 14 13 9 17 -9 9 -47 -34 -47
-53 0 -8 -10 -24 -21 -36 -13 -13 -20 -16 -17 -7 3 8 1 22 -3 31 -7 13 -3 18
17 23 20 5 25 12 22 34 -4 32 -29 40 -52 17 -20 -20 -40 -11 -27 13 4 9 6 24
3 32 -4 13 -3 13 11 1 10 -8 30 -11 48 -9 22 4 34 0 42 -14 7 -10 16 -18 20
-18 11 0 46 42 47 55 0 5 -7 -1 -16 -13 -20 -29 -32 -28 -44 3 -9 23 -11 23
-37 10 -30 -16 -49 -10 -20 6 22 13 22 31 1 27 -10 -2 -19 3 -21 10 -3 7 1 11
9 10 9 -2 12 6 10 30 -2 21 1 32 10 32 20 1 -23 30 -44 30 -10 0 -18 -7 -18
-15 0 -8 -7 -15 -15 -15 -8 0 -15 3 -15 8 1 9 30 48 30 39 0 -4 10 -2 23 5 22
12 22 12 -8 19 l-30 7 33 1 c36 1 40 15 16 49 -8 12 -12 22 -9 22 11 0 44 -44
45 -58 0 -7 4 -10 10 -7 5 3 10 -1 10 -10 0 -11 -5 -15 -14 -12 -7 3 -19 0
-25 -6 -16 -16 -14 -27 5 -20 10 4 17 -2 21 -16 3 -13 12 -21 21 -19 20 4 35
58 20 75 -7 9 -7 13 1 13 6 0 11 5 11 11 0 6 -9 9 -19 6 -14 -3 -18 -1 -14 9
3 9 0 12 -9 9 -17 -7 -51 28 -53 55 -2 27 0 26 24 -14 16 -25 27 -33 41 -29
20 5 36 33 19 33 -6 0 -8 7 -5 16 5 12 0 15 -21 12 -22 -2 -27 1 -28 22 -1 14
4 34 11 45 20 29 18 31 -23 27 -29 -4 -35 -2 -30 10 3 9 0 15 -6 15 -7 0 -25
1 -41 1 -24 2 -27 4 -16 17 11 13 15 13 22 3 7 -10 9 -10 5 2 -2 9 -15 15 -31
14 -16 -1 -25 3 -23 10 3 6 10 10 16 9 14 -4 14 -2 -5 36 -12 24 -13 36 -5 44
6 6 11 7 12 2 4 -51 15 -64 32 -40 12 15 9 22 -21 52 -32 32 -39 59 -8 34 11
-9 16 -9 21 0 4 6 1 16 -6 21 -11 8 -10 9 4 4 13 -4 17 0 17 18 0 20 4 23 23
19 12 -3 30 -13 40 -21 20 -17 30 -12 21 11 -3 9 -20 17 -37 19 -23 2 -31 8
-32 25 -1 13 -5 26 -10 30 -4 5 -6 -2 -3 -14 7 -25 -49 -93 -76 -93 -10 0 -14
-6 -10 -17 5 -15 4 -15 -7 1 -10 16 -8 22 9 35 19 14 19 18 6 35 -18 25 -18
31 3 52 13 13 14 19 5 22 -17 5 -15 59 2 65 10 4 13 1 10 -7 -3 -7 2 -16 11
-20 11 -4 14 -12 10 -26 -3 -11 -2 -20 3 -20 16 0 21 39 7 54 -17 16 -22 47
-11 64 9 16 -2 31 -12 17 -4 -6 -14 -10 -22 -10 -8 0 -19 -10 -24 -21 -5 -12
-25 -29 -43 -39 -18 -10 -33 -22 -33 -27 0 -5 -5 -6 -10 -3 -11 7 17 37 56 62
16 10 17 13 4 22 -8 5 -11 14 -6 18 5 4 11 2 13 -5 6 -15 23 -6 23 12 0 8 -10
12 -25 10 -21 -2 -27 3 -32 27 -4 24 -9 28 -26 23 -13 -4 -17 -2 -13 5 4 6 14
11 23 11 9 0 13 6 9 15 -3 8 -1 15 4 15 6 0 10 -7 10 -16 0 -8 5 -12 11 -9 7
5 5 13 -5 24 -21 23 -20 26 10 29 24 2 25 0 19 -31 -4 -17 -13 -39 -21 -48 -8
-8 -14 -20 -14 -25 0 -5 4 -3 9 5 8 12 12 13 25 1 22 -17 33 -4 18 21 -7 11
-10 24 -7 29 11 18 14 50 4 55 -12 8 -12 35 1 35 11 0 25 -47 22 -72 -4 -22
16 -32 33 -18 8 7 24 10 35 7 11 -3 20 -1 20 4 0 5 -4 9 -9 9 -6 0 -16 12 -23
28 -9 18 -20 26 -33 24 -17 -3 -17 -2 -5 13 9 11 16 13 18 6 2 -6 8 -11 14
-11 5 0 6 9 3 20 -5 16 -2 20 14 20 14 0 19 5 14 16 -4 11 -8 12 -13 4 -6 -9
-9 -9 -15 0 -8 13 -8 13 19 27 12 7 15 13 7 17 -6 4 -11 2 -11 -3 0 -13 -40
-14 -60 -1 -8 5 -11 12 -8 16 4 3 -7 18 -23 31 -16 14 -32 23 -35 20 -4 -3
-12 0 -19 6 -16 15 0 38 21 30 8 -3 15 0 15 6 3 26 4 30 12 37 4 4 7 -3 7 -15
0 -19 4 -21 23 -16 12 4 27 12 32 17 6 6 5 7 -5 4 -8 -3 -21 -2 -29 3 -12 8
-11 12 4 28 17 16 18 16 12 1 -7 -19 8 -25 18 -8 7 11 -12 40 -26 40 -4 0 -14
-6 -21 -13 -16 -16 -61 -29 -52 -16 3 6 0 17 -7 25 -10 12 -7 20 17 46 27 29
28 31 6 25 -26 -6 -28 0 -5 25 11 13 12 18 3 18 -7 0 -19 -8 -27 -17 -12 -16
-13 -15 -7 10 8 35 -12 36 -20 1 -5 -18 -2 -32 9 -44 12 -13 13 -20 5 -25 -6
-4 -9 -13 -6 -20 3 -8 0 -16 -7 -19 -9 -3 -8 -8 3 -16 13 -10 12 -11 -4 -6
-20 7 -20 7 -1 -16 11 -13 21 -25 22 -27 1 -2 9 2 18 9 12 10 15 10 15 -3 0
-22 -29 -29 -46 -12 -18 18 -19 18 -47 4 -18 -9 -20 -9 -10 2 14 14 17 30 6
28 -25 -4 -24 4 2 21 22 15 30 28 32 55 1 25 -2 35 -10 32 -7 -2 -11 -15 -9
-28 l3 -24 -23 27 c-17 20 -30 26 -47 23 -32 -6 -34 -10 -22 -34 9 -17 8 -22
-9 -31 -11 -6 -20 -20 -20 -32 0 -18 2 -19 16 -7 15 12 16 11 9 -11 -8 -25 -8
-25 14 -6 11 11 24 16 27 13 11 -10 -6 -74 -22 -88 -8 -7 -14 -8 -13 -3 4 22
-2 33 -22 39 -17 6 -19 9 -8 16 11 7 10 9 -5 9 -13 0 -16 5 -12 16 4 12 2 15
-9 10 -10 -4 -15 1 -15 16 0 17 2 18 15 8 12 -10 15 -10 15 4 0 9 4 16 8 16 9
0 7 58 -2 67 -3 3 -8 -1 -12 -10 -3 -9 -12 -13 -20 -10 -21 8 -17 23 6 23 11
0 20 7 20 15 0 8 9 19 19 25 26 13 31 13 31 -5 0 -8 9 -15 20 -15 23 0 24 4 9
31 -8 17 -7 23 8 35 17 12 17 13 1 14 -22 0 -24 18 -3 26 8 4 15 12 15 20 0
24 -19 15 -35 -16 -15 -29 -35 -40 -35 -20 0 6 5 10 10 10 6 0 10 9 10 20 0
11 6 20 14 20 8 0 18 9 21 20 4 11 10 18 15 15 10 -6 35 24 26 32 -4 4 -11 1
-16 -7 -6 -8 -10 -11 -10 -6 0 5 8 18 17 29 15 15 15 19 3 17 -8 -1 -23 -2
-34 -1 -17 1 -17 3 -2 26 20 30 20 36 1 29 -8 -4 -15 -3 -15 0 0 8 22 47 38
68 9 11 10 18 3 23 -6 3 -11 -1 -11 -9 0 -9 -4 -16 -10 -16 -5 0 -7 6 -4 14 3
7 -2 16 -10 19 -11 5 -15 0 -13 -15 1 -11 -5 -23 -13 -26 -12 -3 -12 -2 -3 8
9 10 7 17 -8 34 -16 16 -22 18 -28 7 -6 -9 -11 -10 -15 -2 -4 6 -3 11 2 11 5
0 8 12 6 28 -2 15 -1 19 2 10 8 -25 18 -22 54 13 23 24 34 29 43 20 8 -8 7
-11 -5 -11 -21 0 -30 -27 -17 -51 9 -17 13 -18 26 -8 9 8 37 12 69 11 58 -2
84 12 28 15 -84 5 -104 7 -103 13 0 3 14 16 32 30 23 19 29 21 24 8 -4 -12 0
-21 14 -28 18 -10 19 -8 14 19 -4 24 -2 29 10 25 8 -4 15 -13 15 -22 0 -13 2
-14 12 -3 11 10 9 14 -5 22 -14 8 -16 18 -11 45 5 25 3 34 -6 32 -7 -2 -15 3
-17 10 -3 6 0 12 6 12 6 0 11 4 11 10 0 5 -7 7 -15 4 -17 -7 -21 11 -5 21 12
7 4 25 -11 25 -5 0 -9 -7 -9 -15 0 -8 -4 -15 -10 -15 -18 0 -11 -22 15 -44 17
-15 23 -27 19 -44 -7 -25 -19 -28 -31 -9 -11 16 -43 18 -43 1 0 -7 5 -16 10
-19 6 -4 8 -11 4 -16 -4 -6 -10 -6 -18 0 -7 6 -16 8 -19 4 -4 -3 -7 -1 -7 5 0
6 5 14 10 17 16 10 12 25 -5 19 -10 -4 -15 0 -15 15 0 22 14 28 25 11 5 -8 11
-7 21 1 12 10 13 9 8 -5 -3 -9 -1 -16 5 -16 6 0 11 11 11 25 0 18 -5 25 -19
25 -11 0 -23 5 -27 12 -4 7 -3 8 4 4 20 -12 13 5 -10 23 -15 12 -18 20 -10 25
7 4 15 0 18 -8 3 -9 10 -16 16 -16 5 0 6 5 3 11 -4 6 -1 9 7 7 7 -2 16 2 18 7
3 6 -8 10 -23 10 -30 1 -48 20 -40 42 8 20 31 16 44 -8 9 -17 13 -19 20 -8 13
21 11 29 -8 22 -11 -4 -14 -3 -9 5 14 23 34 12 40 -22 6 -33 21 -46 52 -46 8
0 14 9 14 21 0 14 5 19 14 16 8 -3 22 3 32 14 22 25 34 24 34 -2 0 -23 21 -22
28 2 3 11 2 11 -6 1 -7 -11 -11 -9 -15 9 -7 28 0 42 19 35 8 -3 14 1 14 9 0
24 -18 17 -53 -20 -20 -22 -37 -31 -45 -26 -9 6 -7 12 9 27 12 10 24 18 27 16
4 -2 8 1 10 7 5 14 -15 14 -23 1 -4 -6 -12 -7 -18 -3 -26 16 -48 12 -58 -11
-10 -21 -14 -22 -40 -12 -18 6 -27 16 -24 24 7 19 -24 27 -47 13 -11 -7 -23
-10 -26 -6 -4 3 0 10 7 14 8 5 11 17 6 30 -4 12 -2 21 4 21 6 0 8 7 5 15 -4
10 0 15 10 15 23 0 33 30 13 42 -9 4 -14 15 -11 23 4 9 0 15 -8 15 -7 0 -19 9
-26 20 -7 12 -8 20 -2 20 15 0 48 -36 52 -57 4 -23 48 -31 48 -9 0 9 5 16 10
16 21 0 9 -21 -35 -63 -33 -30 -44 -48 -39 -60 5 -15 8 -14 26 6 11 12 17 17
15 12 -3 -6 3 -22 14 -35 l20 -25 -7 25 c-6 21 -5 23 8 13 18 -16 39 2 30 25
-4 12 -1 14 12 9 10 -4 20 -7 22 -7 2 0 4 -9 4 -21 0 -11 -4 -17 -10 -14 -5 3
-10 1 -10 -4 0 -16 16 -13 30 4 7 8 17 15 22 15 6 0 8 -7 4 -15 -3 -8 0 -15 7
-15 7 0 13 16 14 37 1 20 8 40 16 45 9 5 13 16 10 28 -5 20 4 25 37 20 10 -1
9 3 -5 14 -11 8 -14 16 -7 16 17 0 15 47 -3 54 -28 10 -16 26 15 20 20 -4 30
-2 30 5 0 7 -4 10 -9 7 -5 -3 -12 1 -15 10 -3 8 -2 12 4 9 6 -3 10 1 10 9 0 9
6 16 14 16 7 0 16 9 19 21 5 19 4 19 -17 5 -22 -14 -24 -13 -36 20 -8 19 -18
34 -22 34 -5 0 -6 5 -3 10 4 6 17 3 35 -10 32 -23 46 -25 56 -8 5 7 0 9 -14 6
-13 -4 -19 -2 -16 6 2 6 -3 13 -13 14 -63 6 -68 9 -66 36 3 40 -13 31 -30 -16
-8 -24 -18 -52 -23 -62 -6 -16 -4 -18 9 -13 9 3 19 2 22 -3 5 -9 -23 -15 -48
-11 -11 2 -9 -17 3 -24 6 -4 17 -1 25 5 12 10 16 9 21 -4 3 -8 4 -21 1 -28 -4
-8 -6 -6 -6 5 -1 9 -6 17 -12 17 -6 0 -8 -10 -5 -22 3 -13 3 -17 0 -10 -3 6
-12 12 -20 12 -7 0 -16 11 -20 25 -5 20 -13 25 -38 26 -30 0 -30 1 -7 10 15 6
28 6 36 -1 9 -8 14 -5 18 10 3 11 1 17 -4 14 -6 -3 -16 0 -24 6 -12 10 -15 9
-15 -6 0 -13 -3 -15 -11 -7 -6 6 -17 9 -24 7 -7 -3 -16 -1 -20 5 -4 7 4 11 19
11 14 0 26 5 26 11 0 6 -9 8 -20 4 -11 -4 -20 -2 -20 4 0 6 7 11 16 11 8 0 13
4 10 8 -2 4 -1 14 5 22 7 12 9 9 9 -10 0 -24 35 -58 48 -46 3 3 1 6 -5 6 -6 0
-8 19 -5 49 2 30 0 51 -7 55 -18 11 -13 26 11 35 l22 8 -22 12 c-19 10 -21 9
-15 -5 4 -12 3 -15 -6 -10 -7 5 -10 14 -7 21 8 23 -7 26 -21 5 -21 -30 -65
-23 -81 14 -7 16 -10 31 -7 34 3 3 5 0 5 -7 0 -8 7 -10 19 -6 16 5 18 2 14
-17 -4 -18 -3 -20 6 -8 7 10 11 11 11 3 0 -7 7 -13 15 -13 8 0 15 5 15 10 0 6
-5 10 -11 10 -6 0 -9 6 -6 13 2 6 10 11 17 9 7 -2 17 3 21 10 7 10 11 10 21
-1 10 -11 10 -14 0 -18 -19 -7 -14 -23 9 -23 11 0 29 -5 39 -10 13 -7 21 -7
25 0 4 6 1 9 -7 8 -8 -2 -12 4 -10 16 2 11 -1 15 -8 11 -6 -4 -15 5 -21 22 -8
24 -15 29 -40 27 -23 -2 -29 1 -25 13 3 8 6 19 6 24 0 5 4 9 10 9 5 0 9 -6 7
-12 -1 -8 7 -12 21 -11 12 2 22 -2 22 -9 0 -6 8 -4 19 6 15 14 21 15 27 4 10
-16 10 -50 0 -66 -11 -18 15 -15 44 5 17 12 25 13 28 5 2 -7 9 -9 15 -5 7 4 6
-1 -2 -10 -7 -9 -9 -17 -3 -17 5 0 15 6 21 14 16 19 -6 35 -46 30 -29 -3 -31
-1 -29 21 2 14 6 28 9 32 11 11 8 20 -8 20 -8 0 -12 -4 -9 -9 3 -4 -2 -8 -10
-8 -22 0 -78 72 -72 93 4 15 0 18 -15 14 -25 -7 -24 -2 11 42 17 21 29 44 27
52 -2 8 -2 11 0 7 8 -14 33 -8 34 7 1 8 3 20 4 25 1 6 3 13 4 16 0 4 8 1 16
-6 23 -19 29 -5 8 16 -17 17 -17 18 1 11 22 -9 49 10 39 27 -4 6 0 6 9 -2 13
-10 16 -9 20 5 3 10 1 27 -3 38 -6 17 -8 17 -8 3 -1 -10 -6 -18 -12 -18 -15 0
-1 38 23 62 11 11 26 17 33 14 19 -7 31 14 14 25 -8 5 -9 9 -3 9 5 0 15 -5 21
-11 13 -13 28 5 18 21 -9 15 -45 12 -51 -5 -4 -8 -14 -15 -24 -15 -10 0 -21
-8 -23 -17 -4 -17 -5 -16 -6 0 -1 24 -35 18 -37 -6 -2 -12 -1 -13 3 -2 2 8 9
13 14 10 13 -9 11 -45 -2 -45 -7 0 -17 -7 -23 -16 -12 -16 -46 -10 -46 9 0 7
4 7 12 -1 20 -20 26 -14 30 33 3 38 0 45 -19 50 -29 7 -55 -4 -49 -22 3 -8 6
-19 6 -24 0 -6 9 -7 20 -4 11 3 20 2 20 -3 0 -8 -6 -10 -50 -14 -11 -1 -20 -8
-20 -14 0 -6 -7 -17 -15 -24 -10 -9 -15 -9 -15 -1 0 6 5 11 10 11 6 0 10 9 10
21 0 15 5 19 15 15 18 -6 20 10 3 20 -6 4 -19 -3 -30 -16 -13 -17 -18 -18 -18
-6 0 8 9 20 20 26 24 13 26 30 5 30 -13 0 -20 18 -16 43 0 4 -4 7 -9 7 -6 0
-10 5 -10 10 0 23 22 7 36 -25 17 -41 23 -42 55 -14 17 14 20 22 12 25 -17 7
-16 24 1 24 15 0 29 -27 21 -40 -3 -4 4 -10 15 -13 11 -3 20 -1 20 5 0 6 8 0
18 -13 13 -15 21 -19 26 -11 4 7 3 12 -2 12 -6 0 -13 7 -16 16 -4 12 -2 15 9
10 8 -3 15 -3 15 0 0 2 -11 9 -25 14 -24 9 -35 30 -15 30 19 0 48 37 39 52 -4
7 -4 20 1 28 7 10 10 11 10 3 0 -7 9 -13 20 -13 22 0 25 -8 9 -30 -9 -12 -10
-11 -4 5 4 13 3 17 -4 10 -12 -12 -3 -65 11 -65 6 0 8 6 5 14 -3 8 1 13 10 12
17 -1 39 57 24 62 -4 1 -6 14 -3 27 4 21 0 25 -19 26 -13 1 -27 1 -31 0 -4 0
-5 6 -2 13 3 8 23 22 45 30 40 16 56 43 19 31 -12 -4 -27 -1 -35 5 -12 10 -15
9 -15 -4 0 -9 6 -16 12 -16 14 0 -18 -23 -44 -33 -14 -5 -18 -1 -18 14 0 16 4
19 23 14 15 -4 18 -3 8 3 -9 7 -10 12 -2 16 14 9 14 26 0 26 -14 0 -33 20 -43
45 -4 11 -4 17 -1 13 4 -3 19 -2 35 2 22 6 30 5 34 -7 9 -23 7 -30 -4 -13 -9
13 -10 13 -10 0 0 -8 5 -22 10 -30 8 -13 10 -12 10 3 0 9 4 17 8 17 4 0 9 10
9 23 1 12 5 36 8 52 5 22 4 26 -4 15 -8 -12 -13 -12 -23 -2 -7 7 -8 12 -1 12
6 0 11 11 11 25 0 14 -5 25 -10 25 -5 0 -7 8 -4 18 3 9 -1 29 -9 45 -7 15 -10
27 -6 27 15 0 33 -29 35 -55 0 -14 6 -25 12 -25 7 0 9 11 6 28 -5 32 13 20 20
-13 2 -11 10 -19 17 -17 7 1 11 -3 9 -10 -3 -7 -15 -12 -26 -10 -12 2 -22 -2
-22 -7 0 -6 4 -11 9 -11 5 0 14 -14 20 -31 14 -40 14 -39 -3 -39 -8 0 -18 -5
-22 -12 -5 -8 0 -9 17 -4 13 4 29 8 34 9 6 2 16 6 23 10 8 6 12 1 12 -13 0
-17 -4 -20 -20 -15 -11 3 -20 2 -20 -4 0 -17 -32 -42 -46 -37 -8 3 -14 1 -14
-4 0 -4 13 -11 29 -15 27 -6 28 -8 26 -56 -2 -44 0 -49 16 -44 11 4 19 2 19
-4 0 -6 -4 -11 -10 -11 -5 0 -7 -7 -4 -15 8 -19 24 -20 24 -1 0 8 10 17 22 19
l23 4 -23 8 c-12 4 -22 15 -22 25 0 10 -6 21 -12 23 -10 4 -10 6 0 6 8 1 16
-8 19 -19 3 -11 9 -20 14 -20 14 0 11 38 -3 43 -8 3 -6 6 4 6 11 1 20 -9 24
-25 5 -19 9 -23 18 -14 8 8 7 13 -3 19 -7 5 -10 14 -7 20 4 6 -3 15 -16 20
-22 9 -11 16 20 12 10 -2 9 5 -4 24 -9 14 -22 24 -30 23 -7 -2 -13 0 -13 5 -2
22 0 27 14 27 8 0 15 -6 15 -12 0 -9 4 -8 10 2 9 13 11 13 20 0 5 -8 10 -13
10 -10 0 3 4 20 9 38 8 26 7 32 -5 32 -8 0 -12 -4 -9 -10 11 -17 -5 -32 -21
-19 -9 7 -14 8 -14 1 0 -5 -9 -8 -20 -5 -23 6 -26 19 -8 26 9 4 10 8 2 14 -6
4 -10 23 -8 41 2 29 0 32 -19 27 -18 -4 -17 -2 3 8 33 16 39 41 8 32 -13 -4
-30 -12 -38 -18 -8 -6 -5 0 8 14 22 26 21 39 -5 39 -8 0 -11 -5 -7 -12 4 -7 3
-8 -4 -4 -18 11 -15 57 3 50 8 -4 17 1 21 10 5 13 9 14 21 5 10 -9 17 -9 25
-1 8 8 15 7 25 -4 9 -9 23 -12 35 -8 15 4 19 2 16 -7 -3 -8 -14 -13 -24 -11
-68 9 -82 9 -77 -4 4 -10 10 -11 24 -3 14 7 19 6 21 -3 0 -7 2 -17 3 -23 2 -5
3 -16 4 -24 0 -7 7 -11 15 -8 7 3 19 0 25 -6 6 -6 14 -8 18 -4 4 4 1 13 -5 19
-14 14 -16 32 -3 23 5 -3 12 -1 16 5 3 5 1 10 -4 10 -6 0 -10 10 -8 23 1 17
-3 22 -19 20 -13 -1 -24 5 -28 15 -9 25 -30 59 -50 81 -14 15 -15 24 -6 40 6
12 13 21 16 21 3 0 3 -4 -1 -9 -3 -5 -1 -12 4 -16 6 -3 8 -12 4 -20 -3 -8 0
-15 7 -15 6 0 8 6 4 13 -4 7 -3 8 2 4 5 -5 9 -16 10 -25 3 -46 5 -53 14 -47 8
5 8 11 0 20 -8 9 -5 14 11 18 18 5 20 2 15 -18 -4 -14 -1 -27 6 -31 8 -5 9 -2
5 10 -5 14 -3 17 8 12 19 -7 19 5 0 30 -8 10 -15 27 -15 37 0 9 -7 17 -15 17
-8 0 -15 5 -15 10 0 6 7 10 15 10 8 0 15 9 15 20 0 11 -4 20 -10 20 -5 0 -10
-4 -10 -10 0 -5 -7 -7 -15 -4 -8 4 -15 1 -15 -5 0 -6 -5 -11 -11 -11 -7 0 -8
7 -4 18 4 9 8 24 9 32 3 22 16 40 29 40 9 0 8 -3 -1 -8 -26 -17 -2 -40 38 -38
22 2 37 -1 34 -6 -3 -4 -13 -8 -22 -8 -15 -1 -15 -2 2 -15 28 -21 73 -19 86 4
14 27 13 28 -12 35 l-23 7 25 10 c13 5 26 12 28 14 7 6 -19 46 -27 41 -4 -3
-6 6 -3 20 3 19 7 22 18 13 11 -9 14 -7 14 8 0 10 -5 24 -12 31 -9 9 -9 12 0
12 7 0 15 -7 19 -16 4 -11 10 -5 19 22 7 21 11 41 8 45 -13 22 -84 -10 -84
-38 0 -7 -5 -13 -11 -13 -8 0 -8 -4 0 -13 8 -10 7 -18 -3 -32 -11 -15 -12 -8
-11 54 1 64 0 71 -18 71 -12 0 -17 -5 -14 -14 3 -8 -1 -17 -10 -21 -12 -4 -13
-9 -5 -17 8 -8 15 -8 27 2 14 12 15 10 11 -11 -8 -43 -25 -79 -37 -77 -6 2
-14 -3 -16 -9 -3 -7 3 -13 14 -14 11 0 13 -3 5 -6 -7 -3 -22 3 -33 13 -23 21
-26 42 -2 23 15 -12 16 -12 9 6 -17 41 -18 55 -6 55 7 0 10 -7 6 -15 -3 -8 -1
-15 3 -15 16 0 20 28 5 34 -8 3 -14 19 -14 40 0 29 3 33 19 29 20 -5 42 18 23
25 -7 2 -12 17 -12 33 0 16 -5 29 -11 29 -6 0 -9 7 -5 15 3 8 1 15 -4 15 -13
0 -13 37 -1 44 9 6 33 -48 25 -58 -2 -3 2 -2 8 4 17 14 28 12 28 -5 0 -8 -7
-15 -15 -15 -8 0 -15 -5 -15 -11 0 -5 8 -9 18 -7 9 1 18 -2 19 -7 1 -6 -5 -9
-13 -7 -8 2 -14 -2 -14 -8 0 -6 4 -8 10 -5 5 3 10 -1 10 -11 0 -13 3 -14 14
-5 11 9 15 9 19 -1 2 -7 2 -3 0 10 -2 12 1 22 7 22 5 0 10 7 10 15 0 9 6 12
15 9 8 -4 15 -2 15 3 0 5 10 9 23 10 12 0 16 -1 10 -4 -20 -7 -15 -23 6 -23
14 0 21 -8 23 -27 2 -20 8 -28 21 -27 20 2 22 -7 5 -24 -9 -9 -9 -12 0 -12 7
0 12 5 12 11 0 5 4 8 9 5 5 -3 8 5 7 19 -1 28 -6 31 -24 13 -17 -17 -25 -3
-12 22 9 17 14 19 26 9 11 -9 14 -8 14 4 0 20 -22 35 -28 19 -2 -7 -10 -12
-17 -12 -16 0 -48 47 -40 60 3 6 1 10 -4 10 -6 0 -12 8 -12 18 -1 9 -5 4 -9
-13 -7 -28 -8 -28 -9 -5 -2 38 -16 56 -33 42 -15 -12 -58 -5 -58 10 0 5 24 7
52 6 44 -3 53 0 56 15 2 10 0 16 -5 15 -4 -2 -8 2 -8 7 0 6 5 9 12 7 7 -2 17
7 23 20 5 13 9 17 9 10 1 -7 5 -11 10 -7 5 3 13 0 17 -6 4 -8 3 -9 -4 -5 -21
13 -12 -8 12 -31 32 -31 42 -29 21 3 -17 26 -17 27 3 22 23 -6 41 21 22 32 -8
5 -7 15 1 34 10 21 10 29 1 35 -6 4 -9 17 -5 29 3 12 9 19 14 16 5 -3 9 0 9 5
0 6 -11 11 -24 11 -22 0 -23 3 -19 44 5 44 -11 73 -23 42 -3 -9 -10 -16 -15
-16 -4 0 0 13 9 29 12 22 20 27 29 19 7 -6 13 -19 13 -29 0 -23 16 -25 24 -4
5 14 9 14 33 -2 16 -10 34 -25 41 -33 11 -13 13 -11 8 11 -4 18 0 31 12 40 15
12 16 12 4 -2 -7 -9 -10 -24 -6 -33 8 -21 -12 -45 -34 -40 -9 2 -24 0 -32 -6
-13 -8 -13 -11 -1 -19 7 -5 15 -30 17 -57 3 -37 1 -45 -8 -36 -7 7 -17 12 -22
12 -6 0 -5 -5 2 -12 7 -7 12 -19 12 -27 0 -13 -2 -13 -9 -2 -5 8 -11 9 -15 3
-3 -6 -2 -13 2 -16 5 -3 7 -17 5 -31 -3 -13 -10 -22 -15 -18 -6 3 -9 0 -6 -7
8 -26 24 -20 37 15 6 19 15 34 19 34 22 -4 42 2 42 12 0 6 -7 9 -15 5 -11 -4
-15 2 -15 21 0 25 1 26 13 8 13 -17 14 -17 19 3 4 14 -2 29 -17 44 -12 13 -25
33 -29 45 -6 17 -1 15 29 -12 19 -19 35 -41 35 -49 0 -9 5 -16 10 -16 6 0 10
11 10 24 0 16 5 23 15 22 9 -1 14 -6 13 -12 -2 -5 -6 -8 -9 -7 -9 3 -22 -67
-15 -75 3 -3 9 9 12 26 3 17 12 33 20 36 19 7 18 23 -4 46 -12 13 -22 16 -32
10 -22 -14 -27 -12 -33 9 -3 13 1 21 14 24 20 5 27 27 9 27 -15 0 -12 30 5 47
12 11 14 26 9 59 -4 30 -3 44 5 44 6 0 11 7 11 15 0 8 5 15 10 15 15 0 12 -16
-5 -34 -10 -9 -11 -17 -5 -21 6 -4 8 -10 5 -15 -3 -5 -1 -12 5 -15 6 -4 8 -15
5 -26 -7 -20 9 -27 20 -9 3 6 14 10 23 9 13 0 12 -3 -4 -11 -12 -5 -26 -20
-32 -33 -9 -20 -8 -22 14 -22 13 0 21 4 18 9 -10 16 15 35 46 33 25 -1 28 1
18 13 -8 9 -14 10 -16 3 -2 -6 -9 -11 -14 -11 -6 0 -8 3 -5 7 10 9 -14 34 -25
26 -6 -3 -9 0 -6 8 3 8 11 14 18 14 7 0 15 6 18 13 6 18 -11 15 -34 -7 -20
-18 -21 -18 -32 0 -17 26 -15 31 8 24 12 -4 27 -1 35 5 8 7 24 9 37 5 l23 -7
-22 16 c-12 9 -28 14 -36 11 -7 -3 -20 2 -28 12 -13 17 -13 17 4 4 15 -12 20
-12 27 -2 4 8 13 11 19 7 7 -4 9 -1 5 7 -3 8 -1 18 5 22 6 3 11 12 11 18 0 8
-3 8 -9 -2 -6 -9 -11 -10 -15 -2 -4 6 -12 11 -17 11 -6 0 -8 -4 -4 -9 3 -6 -4
-9 -15 -8 -25 2 -26 13 -2 26 16 9 16 10 0 16 -10 4 -18 13 -18 20 0 16 35 29
50 20 13 -8 40 12 40 29 0 6 -6 4 -13 -5 -7 -9 -18 -14 -25 -12 -21 8 -13 20
15 28 15 3 32 12 36 18 6 8 7 5 3 -6 -3 -11 0 -20 9 -23 8 -4 15 -11 15 -16 0
-6 -7 -7 -16 -4 -13 5 -15 2 -11 -14 6 -22 -8 -37 -18 -20 -4 6 -11 8 -16 5
-16 -11 -10 -23 16 -29 17 -4 25 -13 25 -27 0 -18 2 -19 15 -9 17 14 21 45 5
35 -6 -3 -10 3 -10 14 0 25 13 27 35 5 13 -14 14 -19 3 -25 -9 -6 -7 -9 10 -9
25 0 27 6 10 25 -39 43 -50 64 -27 49 6 -3 16 0 21 7 8 12 9 11 5 -1 -2 -8 1
-20 7 -25 15 -13 66 -16 66 -4 0 6 -4 7 -10 4 -5 -3 -10 -1 -10 4 0 6 -9 11
-20 11 -11 0 -20 7 -20 16 0 9 5 13 13 9 6 -4 4 0 -6 8 -18 15 -18 17 -1 42
21 32 76 63 82 46 2 -6 11 -11 20 -11 14 0 14 1 -1 13 -25 19 -38 63 -27 93 9
24 8 26 -9 21 -25 -6 -54 24 -45 47 7 19 9 19 35 4 17 -10 23 -10 26 -1 2 7
11 9 19 6 16 -6 19 13 3 22 -5 4 -18 0 -28 -9 -15 -14 -19 -14 -33 0 -14 14
-17 14 -30 0 -9 -8 -18 -12 -22 -9 -3 3 -12 1 -20 -6 -11 -9 -15 -8 -20 5 -9
23 -7 31 4 14 5 -8 12 -11 16 -7 4 3 1 13 -6 22 -14 17 0 21 17 4 8 -8 13 -5
18 10 3 12 13 21 20 21 8 0 12 -6 9 -13 -3 -10 6 -14 36 -15 22 -1 40 3 40 8
0 6 5 10 10 10 6 0 10 -7 10 -16 0 -8 4 -13 9 -10 14 9 8 89 -6 94 -7 2 -13
-1 -13 -7 0 -6 -8 -11 -17 -11 -14 0 -13 3 5 20 12 11 27 19 34 18 7 -2 12 5
12 15 -1 9 5 17 13 17 8 0 11 5 7 12 -5 8 -2 9 10 5 10 -4 19 -1 22 8 10 25
25 17 18 -9 -3 -13 -1 -27 4 -30 6 -4 8 2 5 14 -3 11 -1 20 5 20 5 0 9 15 8
33 -3 47 3 60 21 42 8 -8 20 -15 26 -14 9 0 8 2 0 6 -7 2 -13 14 -13 25 0 16
3 18 13 9 9 -7 17 -7 24 0 7 7 12 6 16 -5 4 -10 1 -16 -8 -16 -9 0 -12 -6 -8
-15 5 -14 8 -14 24 1 11 9 19 23 19 31 0 16 -47 36 -67 29 -7 -3 -13 1 -13 9
0 9 10 15 26 15 14 0 23 -4 19 -10 -3 -5 -1 -10 4 -10 6 0 11 6 11 14 0 7 7
19 15 26 11 9 15 9 15 1 0 -7 5 -9 10 -6 6 4 5 12 -5 21 -13 13 -19 12 -57 -7
-24 -12 -46 -27 -50 -33 -4 -6 -10 -7 -14 -3 -9 9 16 38 27 31 5 -3 9 2 9 10
0 28 -16 25 -35 -7 -10 -17 -20 -26 -23 -19 -6 19 -20 14 -24 -8 -2 -13 -7
-17 -15 -12 -10 7 -10 13 0 35 9 20 17 25 35 20 28 -7 28 4 1 26 -20 16 -20
17 22 14 24 -1 45 -7 47 -13 2 -5 12 -10 23 -10 11 0 16 5 13 14 -4 9 6 16 29
20 21 4 41 16 51 31 16 25 46 34 46 15 0 -5 5 -10 12 -10 9 0 9 3 0 12 -7 7
-12 20 -12 30 0 18 -16 23 -44 12 -8 -3 -12 -12 -9 -21 5 -13 1 -15 -20 -11
-17 3 -28 0 -31 -9 -9 -23 -28 -3 -22 23 5 17 2 26 -9 30 -8 4 -15 10 -15 16
0 5 15 -2 33 -16 19 -15 38 -26 43 -26 5 0 1 7 -9 15 -14 10 -17 20 -11 37 6
20 5 21 -10 9 -9 -8 -16 -9 -16 -3 0 6 5 14 10 17 6 4 8 11 4 16 -3 5 -10 6
-16 3 -5 -4 -2 5 7 20 19 29 35 34 35 10 0 -9 -5 -12 -12 -8 -8 5 -9 2 -5 -10
4 -10 7 -20 7 -22 0 -2 5 -4 10 -4 6 0 10 7 10 15 0 8 6 15 14 15 8 0 16 5 18
12 8 22 35 -14 30 -39 -4 -19 -7 -21 -18 -12 -9 7 -14 8 -14 1 0 -10 23 -22
41 -22 15 0 10 57 -6 70 -11 9 -12 16 -5 25 8 9 7 14 -1 17 -8 3 -10 11 -5 24
8 19 8 19 15 -1 7 -17 8 -16 13 8 4 22 2 27 -16 27 -18 0 -16 3 9 16 41 21 59
40 50 54 -6 9 -9 9 -16 -1 -10 -18 -6 28 6 55 5 12 3 21 -6 27 -11 6 -11 11
-1 21 9 9 12 9 12 0 0 -7 7 -12 16 -12 10 0 14 5 10 16 -3 8 -2 12 3 9 5 -3
11 5 13 17 l3 23 7 -23 c5 -17 0 -30 -14 -44 -11 -11 -18 -22 -15 -24 9 -9 58
20 53 32 -7 19 5 25 20 9 15 -15 19 -29 6 -21 -5 3 -18 -4 -30 -14 -12 -11
-33 -20 -47 -20 -31 0 -34 -27 -5 -38 20 -7 19 -9 -10 -37 -31 -30 -43 -82
-16 -72 10 4 13 1 9 -9 -3 -7 -1 -14 5 -14 13 0 23 27 16 45 -7 18 12 20 19 3
4 -9 8 -10 14 -3 4 6 18 12 31 12 18 2 22 -2 17 -18 -8 -24 6 -24 33 0 30 26
29 45 -3 37 -34 -9 -42 14 -18 50 17 27 17 28 -1 21 -14 -5 -17 -4 -13 8 7 16
-9 31 -16 15 -3 -6 -4 -5 -3 2 2 7 10 12 19 12 9 -1 14 2 11 7 -3 5 2 9 10 9
9 0 16 9 16 20 0 11 -5 20 -11 20 -5 0 -7 5 -4 10 5 8 11 7 21 -1 17 -14 19 2
2 19 -8 8 -8 15 1 26 7 8 10 20 6 26 -3 5 -2 10 4 10 17 0 22 -19 11 -40 -9
-16 -8 -20 5 -20 8 0 25 6 36 13 17 10 23 10 26 0 8 -21 21 -14 16 8 -3 12
-11 18 -19 15 -21 -8 -17 8 6 22 16 10 20 10 20 -1 0 -6 9 -18 20 -25 18 -11
19 -10 8 13 -9 19 -9 28 0 37 17 17 15 28 -6 28 -10 0 -24 -9 -32 -20 -15 -21
-88 -30 -75 -10 3 6 19 10 35 10 36 0 45 14 27 41 -8 11 -16 16 -18 10 -3 -5
-12 -4 -24 5 -14 10 -16 17 -8 22 6 4 19 21 27 37 14 26 16 27 16 8 0 -12 6
-23 13 -26 6 -2 12 -15 12 -28 0 -37 19 -38 21 -1 1 17 7 39 14 47 10 12 10
18 0 30 -17 20 -120 21 -120 1 0 -8 -6 -16 -14 -19 -8 -3 -16 -16 -19 -29 -3
-17 -5 -14 -6 10 0 20 3 31 9 27 5 -3 10 1 10 9 0 14 -109 16 -1010 16 l-1010
0 0 -1403z m8035 -467 c3 -5 1 -10 -6 -10 -8 0 -8 -4 1 -15 10 -12 15 -13 21
-4 4 7 10 -1 14 -20 3 -17 11 -31 17 -31 6 0 8 8 6 18 -4 15 4 17 56 20 119 5
212 11 253 17 36 5 42 3 41 -12 0 -10 1 -24 3 -32 3 -9 -7 -17 -29 -22 -29 -6
-34 -4 -42 17 -9 21 -14 23 -62 21 -59 -4 -81 -24 -58 -52 10 -12 15 -13 21
-4 6 10 11 10 22 1 12 -10 18 -10 30 3 21 21 34 19 40 -7 5 -16 9 -19 19 -11
7 6 50 11 96 11 46 1 98 6 115 11 19 6 47 7 67 2 l35 -8 -45 -12 c-60 -17 -74
-25 -78 -45 -2 -11 1 -14 12 -10 11 4 16 1 16 -10 0 -9 -4 -16 -9 -16 -10 0
-24 -30 -17 -37 2 -3 14 5 26 17 24 24 40 19 24 -8 -11 -18 -23 -24 -97 -57
-49 -21 -82 -65 -49 -65 22 0 37 11 45 33 8 21 34 17 29 -3 -2 -10 0 -11 10
-3 7 6 21 8 31 4 17 -6 17 -8 -2 -25 -11 -10 -27 -16 -36 -12 -9 3 -24 2 -33
-3 -9 -5 -33 -11 -52 -12 -31 -4 -35 -1 -36 21 0 14 -6 24 -12 23 -7 -2 -12 1
-12 5 0 15 33 39 63 46 15 3 27 11 27 16 0 17 -46 11 -73 -10 -14 -11 -32 -20
-40 -20 -7 0 -28 -7 -46 -16 -36 -18 -56 -10 -27 11 10 8 15 18 12 24 -9 14
14 26 48 26 16 0 31 6 34 14 4 11 -5 12 -41 7 -39 -6 -46 -4 -50 11 -4 15 -5
14 -6 -4 -1 -28 -19 -39 -28 -17 -6 15 -7 14 -15 -5 -4 -13 -15 -22 -25 -20
-35 3 -44 -1 -55 -28 -8 -21 -12 -24 -15 -12 -4 17 -53 33 -53 18 0 -5 -5 -9
-11 -9 -5 0 -9 12 -8 28 1 15 1 36 0 47 l-2 20 -10 -20 c-7 -15 -8 -12 -3 13
3 20 1 32 -5 32 -6 0 -11 7 -11 15 0 19 -24 19 -40 0 -9 -11 -16 -12 -31 -2
-26 16 -24 25 6 33 14 3 25 10 25 15 0 6 -7 6 -18 0 -21 -11 -48 2 -38 18 4 6
15 11 25 11 10 0 21 9 24 19 6 26 -1 33 -24 20 -24 -13 -26 7 -2 33 18 20 29
23 38 8z m-7726 -630 c6 0 11 5 11 11 0 8 4 9 13 0 8 -6 17 -8 20 -4 4 3 7 2
7 -4 0 -5 -9 -18 -20 -28 -11 -10 -20 -13 -20 -7 0 7 -7 12 -15 12 -8 0 -15
-7 -15 -15 0 -8 5 -15 10 -15 6 0 10 -9 10 -21 0 -12 4 -17 11 -14 6 4 8 13 5
21 -3 8 -1 14 4 14 6 0 10 -4 10 -10 0 -5 10 -11 23 -11 l22 -2 -22 -4 c-14
-3 -25 -14 -29 -29 -3 -13 -10 -21 -15 -18 -13 8 -11 -10 4 -25 10 -11 9 -12
-2 -6 -11 6 -13 4 -8 -8 4 -11 2 -14 -7 -11 -7 3 -16 -2 -20 -11 -3 -9 -12
-13 -18 -10 -7 4 -4 -1 7 -9 25 -21 29 -83 5 -89 -10 -2 -22 5 -30 17 -13 20
-13 20 -21 1 -7 -19 -8 -19 -8 1 -1 12 8 25 22 32 16 8 18 11 5 11 -24 1 -27
22 -6 43 10 10 18 24 18 31 0 8 -3 8 -9 -2 -14 -22 -37 -6 -35 25 1 23 5 28
20 26 10 -2 22 -8 25 -14 3 -5 13 1 21 14 16 24 10 59 -11 73 -6 3 -11 11 -11
16 0 6 5 7 10 4 7 -4 9 3 5 22 -6 25 -5 26 8 11 8 -10 19 -18 26 -18z m9487
-951 c1 -5 2 -20 3 -34 1 -30 21 -34 21 -5 0 11 2 20 4 20 2 0 13 3 23 6 17 5
17 5 1 -6 -30 -18 -20 -30 20 -25 25 3 32 2 22 -5 -8 -5 -16 -17 -17 -27 -1
-10 -5 -28 -9 -41 -5 -18 -2 -24 15 -29 11 -3 21 -12 21 -19 0 -8 6 -14 13
-14 7 0 19 -9 27 -20 8 -11 20 -20 28 -20 9 0 11 -7 7 -21 -5 -16 -3 -20 11
-17 19 3 51 -44 34 -50 -6 -2 -4 -13 4 -24 8 -11 12 -26 9 -33 -2 -8 1 -24 8
-37 7 -13 12 -29 11 -35 -2 -7 1 -13 5 -13 14 0 45 -60 39 -76 -3 -7 -1 -14 4
-14 5 0 12 -12 16 -27 3 -16 13 -48 21 -73 8 -25 18 -63 23 -85 4 -22 10 -47
14 -56 4 -9 -2 -25 -14 -39 -11 -13 -20 -18 -20 -11 0 7 -3 10 -8 7 -4 -2 -6
-26 -5 -53 4 -105 -19 -111 -37 -10 -7 39 -16 77 -20 82 -4 6 -12 37 -19 70
-7 33 -16 69 -21 80 -5 11 -29 74 -53 141 -25 67 -61 146 -81 178 -20 31 -36
63 -36 71 0 7 -4 16 -10 20 -12 7 -117 199 -125 228 -6 20 -5 21 8 5 8 -10 19
-18 25 -18 6 0 9 -8 6 -17 -5 -17 -5 -17 6 0 6 9 9 21 6 26 -8 12 4 44 13 36
3 -4 7 -11 7 -16z m-116 -16 c0 -9 3 -13 7 -10 6 7 54 -69 118 -189 35 -65 58
-104 85 -144 9 -14 23 -43 30 -65 7 -22 19 -49 26 -60 8 -11 14 -26 14 -35 0
-8 7 -28 16 -45 9 -16 23 -52 30 -80 8 -27 19 -59 24 -70 11 -22 49 -187 57
-247 4 -31 2 -39 -13 -44 -48 -15 -101 -40 -118 -56 -27 -25 -33 -23 -51 16
-36 75 -88 100 -171 82 l-31 -7 5 113 c2 62 9 118 14 125 5 7 7 17 3 24 -12
18 -15 90 -5 108 28 52 33 186 9 232 -5 9 -5 19 -2 23 13 12 13 49 2 63 -7 7
-13 28 -14 46 -3 38 -31 144 -45 169 -13 23 -13 68 0 68 6 0 10 -7 10 -17z
m-9275 -692 c-3 -5 -1 -12 5 -16 19 -12 10 -32 -25 -51 -29 -16 -46 -34 -31
-34 2 0 11 -3 19 -6 10 -3 17 1 20 13 4 17 4 17 12 0 9 -21 -2 -67 -16 -67 -6
0 -8 9 -4 19 5 16 2 18 -15 14 -24 -6 -25 -12 -7 -38 11 -16 11 -28 2 -58
l-11 -38 -22 28 c-14 17 -22 22 -22 13 0 -13 -1 -13 -9 0 -12 18 -5 31 14 23
18 -6 47 15 39 29 -4 6 -10 5 -15 -3 -7 -11 -11 -11 -21 -1 -10 10 -10 15 2
22 8 5 11 12 7 16 -10 10 -39 -17 -33 -33 3 -7 1 -13 -4 -13 -6 0 -10 -9 -10
-20 0 -11 -4 -20 -10 -20 -18 0 -11 46 10 65 11 10 20 27 20 38 0 21 0 21 -15
1 -14 -19 -14 -18 -15 4 0 12 -3 21 -8 20 -4 -2 -19 7 -32 20 -14 13 -18 20
-9 17 11 -4 21 4 33 27 l17 33 -6 -40 c-6 -36 -5 -38 8 -22 17 21 23 21 30 3
4 -10 1 -13 -9 -9 -23 9 -16 -10 12 -31 l26 -19 -7 23 c-6 18 -4 22 8 17 17
-6 57 31 57 54 0 9 3 19 7 22 9 10 15 8 8 -2z m3113 -146 c-4 -18 -1 -25 10
-25 12 0 13 -13 8 -80 -4 -44 -12 -95 -17 -112 -5 -18 -9 -45 -9 -60 0 -18 -5
-28 -15 -28 -9 0 -15 -9 -15 -24 0 -14 -5 -28 -10 -31 -6 -3 -15 -26 -21 -50
-21 -83 -66 -85 -56 -3 18 150 54 288 100 391 24 52 32 59 25 22z m7407 -1570
c-16 -13 -39 -25 -50 -25 -22 0 -52 -16 -45 -24 6 -5 120 32 136 45 13 10 24
2 24 -18 0 -8 -6 -13 -12 -11 -17 3 -148 -45 -148 -54 0 -13 17 -9 82 17 34
14 63 25 65 25 2 0 3 -25 1 -56 l-3 -56 -65 -27 c-98 -42 -110 -45 -110 -27 0
10 16 20 45 27 25 6 48 15 51 20 3 5 13 9 23 9 21 0 58 26 49 35 -3 3 -14 2
-25 -4 -34 -19 -115 -51 -129 -51 -8 0 -14 7 -14 15 0 8 6 15 14 15 33 0 156
53 156 67 0 8 -3 13 -7 11 -45 -23 -103 -48 -124 -53 -25 -6 -27 -5 -24 27 2
18 4 45 4 61 1 21 6 27 24 27 12 0 33 7 47 14 14 8 34 14 45 15 17 1 15 -3
-10 -24z m5 -553 c0 -26 -7 -74 -15 -105 -8 -32 -15 -67 -15 -78 0 -17 -37
-42 -58 -37 -15 3 -102 -25 -102 -33 0 -12 7 -11 74 11 70 24 76 24 76 7 0 -9
-29 -21 -77 -32 -43 -10 -82 -23 -88 -28 -11 -9 20 -5 94 13 24 6 49 9 55 6
17 -6 -58 -36 -108 -42 -38 -6 -45 -4 -50 13 -4 11 0 36 8 55 14 32 20 36 66
42 63 8 57 26 -6 18 -34 -3 -45 -2 -40 7 4 6 15 11 24 12 9 0 37 9 62 20 l45
19 -50 -6 c-27 -3 -58 -10 -67 -15 -13 -7 -18 -6 -18 3 0 7 28 21 63 31 90 27
94 29 80 34 -6 2 -37 -3 -69 -11 -62 -16 -74 -15 -55 8 6 8 10 20 9 27 -2 7
11 17 27 22 45 14 109 40 118 47 10 8 -25 6 -38 -2 -17 -10 -118 -38 -123 -34
-10 10 10 24 43 30 19 4 54 16 77 26 24 11 46 20 51 20 4 0 7 -22 7 -48z
m-4770 -653 c0 -5 4 -8 9 -4 18 11 21 -14 4 -31 -13 -12 -14 -19 -5 -22 6 -2
12 -12 12 -23 0 -11 7 -19 16 -19 8 0 12 -4 9 -10 -11 -18 -35 -11 -35 11 0
14 -5 19 -17 17 -13 -2 -18 -15 -20 -43 -2 -28 0 -36 6 -25 6 8 13 11 17 7 11
-10 -16 -37 -37 -37 -11 0 -19 7 -19 15 0 8 4 15 8 15 4 0 9 11 10 25 2 33
-16 32 -24 -1 -4 -14 -9 -22 -13 -17 -9 14 -41 24 -41 14 0 -5 -10 -7 -22 -3
-18 4 -20 2 -16 -16 7 -24 6 -25 -16 -16 -10 4 -16 18 -16 41 0 20 4 32 10 28
11 -7 12 -4 14 35 2 43 45 57 82 29 6 -5 14 -6 18 -2 4 4 4 0 0 -10 -3 -9 -12
-17 -20 -17 -16 0 -18 -9 -4 -30 8 -13 10 -12 10 3 0 17 24 24 33 10 2 -5 2
-2 0 6 -2 8 5 22 16 33 11 10 18 25 15 33 -4 8 -1 15 5 15 6 0 11 -5 11 -11z
m-3772 -1101 c-7 -13 -20 -28 -28 -34 -8 -7 -11 -16 -7 -20 4 -5 12 -2 17 6 6
8 10 11 10 6 0 -6 7 -1 15 10 12 15 14 16 15 3 0 -8 -11 -26 -25 -39 -14 -13
-25 -31 -24 -39 0 -14 1 -14 6 -1 9 24 41 50 62 50 30 0 51 11 51 26 0 8 -4
14 -10 14 -5 0 -10 7 -10 15 0 8 5 15 10 15 6 0 10 -5 10 -12 0 -6 8 -4 19 6
19 17 20 17 32 -5 9 -17 9 -24 0 -27 -6 -2 -11 -11 -12 -20 0 -11 -2 -12 -6
-4 -2 6 -9 12 -15 12 -7 0 -6 -5 2 -14 13 -16 40 -11 40 8 0 13 39 40 47 33 2
-3 0 -14 -6 -25 -15 -28 -14 -37 4 -22 18 15 35 5 35 -21 0 -24 -20 -26 -20
-1 -1 15 -2 15 -13 2 -15 -19 -69 -24 -79 -7 -5 8 -8 7 -8 -5 0 -9 -7 -21 -16
-26 -14 -8 -14 -10 4 -14 15 -4 19 -2 15 8 -4 10 0 12 11 8 18 -7 19 -13 7
-33 -5 -7 -14 -10 -20 -7 -7 4 -11 -1 -11 -13 0 -13 5 -19 14 -15 10 4 12 -2
8 -21 -3 -20 -7 -23 -14 -13 -7 10 -13 8 -28 -11 -11 -13 -35 -27 -53 -30 -26
-6 -32 -12 -29 -30 1 -16 -2 -22 -12 -18 -18 7 -36 -11 -29 -30 3 -8 -2 -19
-10 -26 -9 -7 -19 -23 -22 -37 -5 -21 -1 -29 19 -40 28 -14 36 -50 11 -50 -9
0 -12 -6 -8 -17 6 -15 5 -16 -9 -3 -9 8 -12 17 -7 18 5 2 9 9 9 15 0 14 -30
47 -44 47 -6 0 -5 -5 2 -12 18 -18 14 -30 -5 -17 -10 6 -19 24 -20 41 -3 38
-12 48 -24 26 -5 -9 -17 -24 -25 -33 -15 -15 -15 -17 2 -29 10 -8 25 -11 34
-8 13 5 13 3 2 -11 -8 -9 -11 -21 -7 -27 7 -11 -21 -39 -40 -40 -6 0 -6 3 1 8
21 14 25 45 8 63 -21 23 -56 26 -48 4 4 -8 2 -15 -4 -15 -6 0 -13 6 -15 13 -3
6 -6 0 -6 -15 -1 -16 -3 -28 -5 -28 -2 0 -13 -3 -23 -6 -15 -5 -15 -4 -3 5 12
8 13 14 3 29 -13 21 -1 48 17 37 7 -4 13 1 17 14 4 17 8 19 19 10 10 -8 14 -8
14 0 0 6 -4 11 -10 11 -5 0 -10 6 -10 13 0 8 -7 14 -15 14 -10 0 -12 -4 -6
-10 10 -10 4 -37 -8 -37 -13 0 -32 53 -23 62 5 5 19 11 33 14 65 14 70 14 64
4 -3 -6 0 -7 10 -4 20 8 15 24 -11 38 -10 6 -23 17 -27 24 -4 6 -15 12 -22 12
-17 0 -20 26 -5 35 6 3 10 0 10 -7 0 -8 8 -20 18 -29 23 -20 81 -43 89 -35 3
3 -1 6 -9 6 -9 0 -21 7 -29 16 -18 21 0 31 58 32 36 1 45 -2 52 -20 5 -14 10
-18 15 -10 4 7 0 19 -8 28 -12 11 -13 20 -6 34 14 25 13 37 -2 22 -19 -19 -26
-14 -21 12 4 20 1 25 -16 23 -23 -1 -28 -13 -8 -20 8 -3 5 -12 -10 -28 -14
-14 -23 -18 -23 -10 0 8 -6 11 -15 7 -23 -8 -18 13 8 35 18 15 19 18 5 19 -9
0 -19 -6 -21 -12 -3 -8 -6 -6 -6 5 -1 9 8 26 18 36 12 12 17 27 14 40 -4 15
-1 21 11 21 9 0 16 -6 16 -14 0 -8 5 -18 11 -22 8 -4 9 1 4 16 -6 20 -4 22 14
17 25 -6 40 11 20 24 -9 6 -10 12 -4 17 6 4 16 19 24 35 8 15 20 27 28 27 11
0 11 -4 1 -22z m9919 -313 c42 -21 56 -41 49 -68 -9 -36 -45 -77 -68 -77 -24
0 -88 37 -88 51 0 8 69 109 74 109 2 0 17 -7 33 -15z m-287 -7 c0 -9 3 -10 8
-2 9 14 139 11 153 -3 7 -7 1 -32 -16 -79 -53 -140 -85 -240 -85 -264 0 -14
-11 -68 -24 -121 -30 -121 -35 -304 -11 -361 11 -28 15 -74 15 -180 0 -93 6
-168 16 -213 21 -94 25 -125 16 -125 -8 0 -42 57 -42 72 0 5 -6 24 -14 41 -8
18 -27 61 -41 97 -42 102 -124 285 -200 445 -58 123 -61 136 -41 197 9 29 20
73 23 98 6 54 -30 237 -58 292 -10 20 -19 49 -19 63 l0 25 106 -2 c66 -1 108
3 112 9 6 10 35 17 85 22 9 0 17 -5 17 -11z m-3455 -198 c-8 -13 25 -26 34
-14 11 16 43 13 37 -3 -3 -8 -6 -20 -6 -26 0 -8 -4 -7 -12 1 -19 19 -29 14
-16 -8 11 -17 10 -22 -1 -29 -9 -6 -10 -11 -2 -15 6 -4 11 -2 11 3 0 6 4 11 9
11 18 0 5 -102 -14 -116 -23 -17 -38 -8 -30 17 5 14 2 19 -14 19 -11 0 -23 5
-26 10 -4 6 -11 8 -16 5 -5 -4 -9 1 -9 10 0 9 -9 19 -20 22 -21 6 -28 23 -9
23 6 0 8 9 4 20 -4 14 -1 22 12 27 10 4 21 11 25 17 4 6 10 7 15 3 4 -5 1 -13
-7 -18 -11 -8 -12 -12 -3 -15 8 -4 9 -13 3 -28 -7 -20 -6 -22 16 -18 31 6 40
37 19 68 -14 22 -13 44 1 44 3 0 2 -5 -1 -10z m-6617 -26 c6 3 13 2 16 -3 9
-13 -20 -21 -32 -9 -13 13 -33 -28 -24 -51 4 -10 1 -12 -9 -7 -8 4 -6 1 4 -7
10 -8 17 -23 15 -33 -2 -9 2 -19 7 -21 6 -2 12 9 13 23 3 37 20 54 54 54 20 0
31 6 38 23 5 12 9 18 10 12 0 -5 5 -3 11 5 9 13 10 13 6 0 -2 -8 0 -23 5 -32
5 -11 5 -26 -2 -39 -15 -26 -7 -34 19 -19 22 11 27 4 12 -19 -5 -8 -16 -11
-25 -8 -9 4 -16 2 -16 -4 0 -6 -5 -7 -11 -3 -6 3 -9 14 -6 23 5 22 -16 41 -48
41 -23 0 -25 -2 -15 -21 9 -16 8 -23 -4 -32 -24 -19 -31 -66 -12 -73 13 -5 14
-9 5 -20 -9 -12 -8 -18 7 -29 10 -8 25 -15 32 -15 6 0 12 -4 12 -9 0 -12 -43
-1 -52 13 -5 8 -8 7 -8 -2 0 -7 12 -18 28 -25 15 -6 30 -16 33 -20 4 -5 16 -4
28 2 27 15 27 21 -1 14 -23 -6 -23 -6 2 18 14 13 24 32 22 42 -4 19 14 24 21
5 3 -7 6 -2 7 12 1 14 4 19 7 13 7 -20 23 -15 23 7 0 13 5 18 15 14 19 -8 19
-23 0 -43 -70 -73 -94 -118 -56 -106 10 3 24 -1 31 -10 9 -10 9 -15 1 -16 -26
-3 -30 -4 -37 -12 -5 -4 -3 -11 4 -16 8 -5 9 -16 3 -38 -5 -17 -7 -34 -4 -37
3 -2 23 13 45 35 22 21 47 39 55 39 12 0 13 3 4 13 -6 8 -8 17 -4 20 3 4 0 7
-9 7 -11 0 -13 8 -10 30 3 18 0 30 -7 30 -6 0 -11 14 -11 30 0 20 5 30 15 30
11 0 14 -7 9 -24 -4 -19 1 -32 21 -53 20 -20 26 -23 21 -10 -16 47 -18 67 -6
67 6 0 10 -6 7 -12 -2 -7 2 -21 11 -30 12 -14 19 -15 36 -6 11 6 24 15 27 20
3 5 9 0 12 -11 4 -16 0 -21 -13 -21 -24 0 -50 -26 -49 -48 1 -16 2 -16 6 0 4
17 43 21 43 5 0 -4 4 -5 10 -2 5 3 7 0 4 -9 -8 -20 15 -59 31 -52 9 3 12 0 8
-9 -3 -8 2 -18 11 -21 9 -3 16 -13 16 -21 0 -9 8 -22 18 -30 15 -13 15 -13 -5
-3 -25 12 -31 2 -11 -18 8 -8 9 -12 1 -12 -12 0 -43 27 -43 37 0 3 7 11 17 18
11 8 13 14 5 19 -7 4 -12 3 -12 -3 0 -6 -7 -8 -15 -5 -8 4 -15 12 -15 20 0 19
-33 83 -43 84 -5 0 -7 -10 -5 -22 2 -17 -2 -23 -14 -22 -27 2 -22 -6 10 -17
34 -12 61 -77 39 -91 -9 -6 -7 -11 6 -19 13 -7 15 -15 8 -28 -6 -10 -6 -22 -2
-27 5 -5 11 -25 15 -44 3 -20 2 -29 -2 -22 -5 7 -15 12 -23 10 -8 -2 -15 7
-17 20 -2 12 -7 22 -12 22 -6 0 -5 11 0 26 9 23 8 25 -10 19 -22 -7 -28 12 -7
21 15 5 19 64 4 64 -5 0 -7 7 -3 15 3 8 1 15 -4 15 -6 0 -10 -4 -10 -10 0 -5
-4 -10 -10 -10 -5 0 -7 6 -4 13 8 22 -20 50 -43 43 -21 -7 -26 -35 -9 -47 5
-4 4 -20 -2 -38 -10 -28 -9 -31 9 -31 16 0 19 4 14 23 -5 18 -2 16 14 -8 26
-37 26 -57 2 -79 -11 -10 -17 -25 -14 -34 4 -15 3 -15 -6 -2 -10 13 -12 13
-20 0 -6 -8 -14 -11 -18 -6 -4 5 -2 11 5 13 6 3 12 18 12 35 0 25 3 28 20 23
11 -4 20 -2 20 4 0 6 -11 11 -24 11 -32 0 -63 29 -44 41 10 7 9 9 -4 9 -11 0
-18 -10 -20 -27 -2 -16 -6 -26 -9 -23 -4 3 -16 -4 -28 -14 -14 -13 -21 -15
-21 -6 0 7 -2 11 -5 8 -3 -3 -3 -12 0 -20 5 -13 11 -13 31 -4 13 6 24 14 24
19 0 4 7 7 15 7 11 0 12 -6 6 -22 -5 -13 -5 -33 0 -44 6 -17 3 -24 -18 -33
l-25 -12 26 -24 c31 -29 32 -36 6 -53 -23 -14 -27 -34 -5 -26 10 4 15 0 15
-11 0 -11 -5 -15 -16 -11 -8 3 -13 2 -10 -3 3 -4 -6 -18 -19 -29 -14 -12 -25
-26 -25 -32 0 -5 -5 -10 -10 -10 -7 0 -7 6 -1 19 6 10 7 21 4 25 -3 3 -1 6 5
6 13 0 11 21 -7 63 -6 16 -9 33 -5 38 9 15 31 10 38 -8 6 -15 8 -15 16 -3 12
19 13 33 1 26 -5 -3 -14 1 -20 8 -8 10 -9 16 -1 21 18 11 11 35 -10 35 -11 0
-20 5 -20 10 0 14 12 12 38 -6 12 -8 22 -11 22 -5 0 5 -4 12 -10 16 -5 3 -6
13 -3 21 5 14 3 15 -14 6 -11 -6 -23 -8 -27 -5 -3 4 -15 7 -26 8 -15 1 -19 -3
-15 -16 3 -9 0 -21 -6 -25 -9 -5 -10 -2 -6 9 9 25 -8 21 -28 -7 -10 -13 -24
-22 -32 -19 -7 3 -13 -2 -13 -11 0 -19 5 -20 30 -6 13 7 21 6 30 -5 9 -11 9
-15 1 -15 -6 0 -11 -10 -12 -22 0 -13 -3 -17 -6 -10 -2 6 -9 12 -14 12 -4 0
-6 -7 -3 -15 6 -15 -17 -45 -35 -45 -6 0 -11 7 -11 15 0 17 -16 20 -25 5 -3
-5 -12 -7 -20 -3 -17 6 -21 -22 -5 -32 6 -3 10 -12 10 -18 0 -9 -2 -9 -8 0
-10 15 -62 28 -62 15 0 -17 -28 -21 -41 -6 -10 12 -9 13 5 8 12 -5 19 0 23 15
3 11 9 19 13 16 9 -6 25 53 17 61 -9 9 -47 -20 -48 -36 0 -10 -3 -8 -8 5 -10
25 -4 38 15 31 8 -3 14 0 14 8 0 7 9 12 23 10 12 -1 25 -3 29 -3 4 -1 5 -7 2
-15 -5 -14 20 -46 37 -46 12 0 11 37 -1 45 -8 5 -7 12 2 22 19 23 21 53 3 47
-8 -4 -15 -10 -15 -15 0 -19 -48 -9 -53 11 -6 22 8 28 16 8 2 -7 8 -10 13 -5
4 4 -3 15 -16 24 l-23 16 21 8 c14 5 20 14 16 24 -5 12 -10 13 -20 4 -14 -11
-34 -5 -34 12 0 5 7 9 16 9 17 0 14 22 -4 28 -7 2 -12 -4 -12 -13 0 -9 -5 -13
-10 -10 -7 4 -9 -3 -6 -19 3 -18 1 -23 -10 -19 -8 3 -14 0 -14 -6 0 -6 -7 -8
-15 -5 -16 7 -19 -4 -7 -24 5 -7 16 -10 25 -6 10 3 17 1 17 -5 0 -15 -45 -14
-58 2 -8 9 -7 24 3 52 17 48 19 85 4 85 -6 0 -8 -8 -4 -19 3 -12 0 -21 -10
-25 -20 -7 -20 18 1 49 21 32 42 32 50 0 3 -14 10 -25 15 -25 5 0 30 20 56 45
39 37 45 48 33 55 -23 14 -31 12 -37 -10 -6 -23 -12 -24 -35 -6 -22 16 -22 23
-3 42 13 14 11 19 -20 50 -29 28 -32 34 -16 34 11 0 21 -6 24 -12 2 -7 8 -10
12 -6 4 4 0 14 -9 23 -20 20 -21 39 -2 32 10 -4 13 -1 10 7 -4 10 4 12 28 10
30 -3 35 0 54 39 17 33 19 48 11 71 -7 21 -6 30 3 36 7 4 9 13 6 19 -4 6 -2
11 3 11 6 0 11 9 11 19 0 21 31 33 41 18 4 -5 11 -7 17 -3z m6565 -132 c9 -8
17 -19 17 -25 0 -5 9 -21 19 -36 13 -18 17 -32 11 -41 -5 -8 -7 -17 -5 -20 2
-4 -2 -7 -10 -7 -17 0 -25 19 -20 45 3 15 -1 19 -15 15 -23 -6 -35 -20 -44
-50 -6 -17 -3 -23 8 -23 11 0 16 9 16 27 0 40 21 14 23 -28 1 -22 -2 -33 -11
-31 -6 1 -12 -3 -12 -10 0 -6 -8 -4 -19 6 -16 14 -19 15 -24 2 -3 -8 3 -22 14
-32 28 -25 23 -94 -7 -94 -7 0 -17 -15 -22 -32 -6 -23 -14 -32 -25 -30 -10 2
-17 -3 -17 -9 0 -7 -3 -9 -6 -6 -4 4 -1 13 6 22 14 16 6 65 -11 65 -5 0 -13
-8 -17 -17 -9 -22 -35 -23 -44 -3 -5 12 -7 12 -7 -2 -1 -23 -40 -68 -59 -68
-16 0 -11 -22 6 -28 7 -2 12 3 12 12 0 22 17 20 30 -4 6 -11 16 -17 25 -14 8
4 15 1 15 -4 0 -15 -17 -24 -24 -14 -3 5 -17 7 -30 5 -29 -6 -46 9 -65 54 -7
17 -21 33 -32 36 -30 8 -22 27 11 27 28 0 35 -8 31 -37 -1 -7 3 -13 9 -13 5 0
10 6 10 14 0 8 7 17 16 20 15 6 15 8 2 24 -19 21 -28 56 -18 71 4 7 12 -5 19
-29 6 -22 15 -40 19 -40 4 0 22 16 41 35 18 19 39 35 47 35 8 0 14 5 14 10 0
6 5 10 10 10 6 0 10 -6 10 -13 0 -22 25 -67 35 -64 6 2 10 9 9 15 -1 7 -2 22
-3 35 -1 18 -3 19 -11 7 -8 -13 -10 -13 -10 -1 0 16 -39 61 -52 61 -5 0 -6 -4
-3 -10 3 -5 1 -18 -5 -27 -8 -13 -10 -13 -7 -3 6 21 -13 45 -40 52 -20 5 -22
3 -17 -18 3 -13 2 -25 -2 -25 -39 -7 -74 -6 -74 2 0 5 6 9 14 9 9 0 13 10 12
25 -1 27 -6 31 -23 14 -7 -7 -12 -6 -16 5 -4 9 -2 16 2 16 13 0 22 30 16 51
-4 11 -14 19 -23 19 -11 0 -13 3 -6 10 15 15 44 1 44 -21 0 -10 5 -19 11 -19
6 0 9 -7 6 -15 -4 -8 -2 -17 3 -20 14 -9 22 13 12 32 -10 19 -5 43 8 43 10 0
40 -57 40 -75 0 -7 9 -15 21 -18 15 -4 19 -2 15 8 -3 8 -1 17 3 20 5 3 12 -2
15 -11 3 -8 10 -12 16 -9 6 4 8 10 5 15 -3 4 1 11 7 13 10 4 10 8 -2 16 -8 5
-18 7 -22 5 -10 -6 -11 20 -1 29 3 4 14 0 24 -9 19 -18 39 -11 39 12 0 11 7
14 23 10 12 -3 16 -3 10 0 -7 3 -13 11 -13 18 0 7 -7 13 -15 13 -8 0 -15 -4
-15 -9 0 -4 -5 -8 -12 -8 -14 0 7 24 23 26 5 1 14 2 21 3 7 0 3 8 -8 17 -18
14 -18 15 6 8 14 -3 33 -13 43 -22z m3002 -126 c-11 -7 -44 -21 -73 -30 -29
-10 -66 -29 -81 -42 -16 -13 -35 -24 -44 -24 -8 0 -31 -11 -51 -25 -20 -14
-41 -25 -45 -25 -5 0 -28 -16 -52 -35 -24 -19 -50 -35 -56 -35 -7 0 -13 -3
-13 -7 0 -5 -17 -19 -38 -32 -20 -14 -47 -34 -59 -45 -39 -34 -39 -7 -1 30 20
18 40 34 43 34 4 0 27 18 53 39 52 43 177 119 232 141 19 7 40 17 47 22 11 9
127 46 148 47 5 1 1 -5 -10 -13z m-9840 -426 c-8 -12 23 -33 40 -26 16 6 19
-3 9 -28 -4 -11 -14 -14 -29 -10 -17 4 -24 0 -28 -15 -3 -12 -1 -24 4 -27 5
-3 9 -12 9 -20 0 -11 -6 -13 -20 -9 -15 5 -18 3 -14 -10 4 -10 13 -13 25 -10
11 4 19 2 19 -4 0 -6 -6 -11 -12 -12 -9 0 -9 -2 -2 -5 7 -3 10 -15 8 -27 -5
-22 -5 -22 5 1 6 12 15 22 20 22 7 0 7 9 0 26 -5 15 -8 27 -7 28 2 1 12 8 22
16 14 11 17 11 12 2 -12 -20 2 -62 21 -62 13 0 14 3 5 12 -7 7 -12 18 -12 24
0 18 40 13 42 -6 0 -8 2 -19 3 -25 2 -5 3 -14 4 -19 0 -6 6 -5 13 2 16 16 25
15 32 -4 4 -12 2 -15 -9 -10 -9 3 -15 0 -15 -8 0 -23 13 -26 33 -9 20 18 20
17 14 -15 -4 -19 -3 -31 2 -27 5 3 12 1 16 -5 3 -5 2 -10 -2 -10 -5 0 -7 -16
-5 -36 3 -23 0 -39 -8 -44 -11 -7 -10 -13 3 -34 21 -31 22 -42 2 -22 -8 8 -15
19 -15 24 0 5 -8 16 -17 23 -15 13 -16 11 -9 -11 18 -60 19 -70 2 -70 -21 0
-20 -26 2 -39 9 -6 13 -11 9 -11 -4 0 -19 7 -33 16 -20 14 -22 19 -12 32 10
12 10 16 1 19 -9 3 -11 14 -6 30 5 23 3 25 -13 20 -18 -7 -18 -6 -1 7 9 7 17
18 17 25 0 6 6 11 13 12 9 0 9 2 0 6 -10 4 -10 10 2 26 22 31 19 37 -17 37
-38 0 -52 -8 -61 -32 -4 -12 -2 -15 9 -11 7 3 14 10 14 16 0 6 3 8 6 5 3 -4 1
-15 -5 -27 -11 -20 2 -41 14 -21 3 5 11 10 17 10 6 0 3 -8 -8 -18 -21 -20 -45
-22 -66 -5 -11 10 -13 7 -12 -14 0 -14 9 -32 18 -39 10 -7 16 -22 15 -36 -2
-13 0 -29 5 -37 5 -8 4 -16 -4 -21 -15 -9 -52 -1 -45 10 10 16 -7 39 -22 33
-12 -5 -14 -3 -8 7 6 10 4 12 -8 7 -10 -4 -17 -2 -17 4 0 6 -7 8 -16 5 -14 -6
-15 -4 -4 9 10 11 15 13 20 4 6 -8 9 -8 14 0 4 6 4 16 1 21 -3 6 1 10 9 10 9
0 16 -7 16 -15 0 -8 5 -15 11 -15 7 0 6 8 -3 23 -10 16 -12 34 -6 66 8 49 -1
77 -14 42 -6 -18 -13 -21 -30 -15 -21 6 -22 5 -8 -12 11 -15 11 -16 0 -6 -21
18 -30 15 -30 -10 0 -38 -13 -45 -36 -21 -20 20 -21 24 -8 48 15 28 8 58 -7
34 -6 -10 -9 -8 -9 9 0 19 -3 21 -19 12 -26 -13 -31 -13 -31 4 0 19 63 72 68
57 2 -6 10 -11 18 -11 9 0 13 4 9 9 -7 12 12 24 25 16 8 -5 7 -12 -2 -23 -11
-13 -10 -15 4 -9 10 3 20 1 24 -5 4 -7 10 -5 16 6 10 18 2 39 -13 31 -5 -4 -9
4 -9 17 0 18 -2 20 -10 8 -11 -17 -15 -13 -24 20 -3 14 -3 19 0 13 8 -19 35
-16 28 2 -4 9 0 15 10 15 9 0 16 6 17 13 7 77 5 85 -10 79 -14 -5 -14 -3 -2
11 10 13 17 15 27 6 8 -6 12 -15 9 -19z m11102 -42 c32 -35 41 -60 36 -100 -6
-47 -26 -64 -83 -72 -38 -6 -42 -5 -30 6 24 20 43 74 35 100 -4 13 -15 32 -25
43 -34 40 -33 45 8 45 27 0 44 -7 59 -22z m-11269 -355 c1 -20 -1 -24 -7 -14
-7 12 -12 11 -30 -1 -22 -16 -19 -30 5 -21 22 8 17 -11 -7 -25 -12 -8 -18 -19
-15 -28 3 -8 -1 -14 -10 -14 -12 0 -15 -7 -12 -25 3 -14 1 -25 -3 -25 -5 0 -9
5 -9 11 0 5 -4 8 -10 4 -5 -3 -6 -13 -3 -23 6 -15 5 -15 -10 -4 -9 8 -25 11
-36 7 -10 -3 -22 -1 -26 5 -3 5 1 10 9 10 9 0 16 5 16 10 0 6 7 10 15 10 8 0
15 5 15 10 0 6 -4 10 -9 10 -6 0 -13 -4 -16 -10 -3 -5 -15 -10 -26 -10 -16 0
-18 3 -9 19 14 27 13 32 -6 29 -10 -2 -19 3 -21 10 -4 9 2 11 20 7 24 -6 24
-6 17 34 -8 47 2 53 26 15 15 -22 15 -27 3 -36 -11 -7 -9 -8 7 -4 15 5 23 0
31 -21 10 -27 11 -27 7 9 -3 30 0 38 16 43 11 4 18 10 15 15 -3 4 3 6 14 3 11
-3 21 2 24 11 10 25 22 19 25 -11z"/>
<path d="M11140 7312 c0 -22 -4 -51 -9 -64 -14 -38 -24 -221 -12 -213 6 3 11
32 11 63 0 57 13 128 24 140 7 6 133 -16 157 -29 26 -13 151 -31 160 -22 4 4
4 24 1 43 -5 24 -13 36 -27 38 -114 19 -272 59 -292 75 -10 7 -13 0 -13 -31z"/>
<path d="M4914 3865 c-4 -8 -12 -15 -20 -15 -7 0 -16 -10 -18 -22 -10 -47 -13
-128 -5 -128 11 0 -1 -33 -15 -43 -7 -5 -5 -12 6 -20 11 -9 14 -18 7 -28 -5
-8 -9 -20 -9 -28 0 -11 4 -10 13 4 9 11 19 15 27 10 10 -6 6 -14 -16 -31 -26
-22 -28 -26 -17 -54 10 -26 9 -30 -5 -31 -11 0 -9 -3 7 -10 13 -5 26 -7 29 -4
3 3 14 -2 24 -12 23 -21 24 -6 1 20 -10 11 -13 17 -6 13 7 -4 21 2 32 13 17
17 19 26 11 46 -6 16 -14 23 -25 19 -11 -5 -15 1 -15 20 0 16 -6 26 -15 26
-20 0 -19 10 3 26 16 12 16 13 -4 14 -19 0 -21 5 -20 68 0 68 10 89 33 70 10
-8 13 -6 13 6 0 9 7 16 16 16 11 0 14 -6 9 -20 -4 -14 -2 -20 9 -20 10 0 15 8
13 23 -2 27 -26 38 -49 23 -27 -16 -32 0 -9 25 12 13 21 26 21 31 0 14 -20 9
-26 -7z"/>
<path d="M4906 3411 c-4 -6 -11 -9 -16 -6 -11 7 -32 -30 -23 -38 3 -4 1 -12
-4 -19 -13 -15 -14 -68 -2 -68 4 0 6 -15 4 -32 -5 -39 2 -68 17 -68 5 0 8 7 4
15 -7 20 4 19 20 -2 18 -24 17 -65 -1 -89 -13 -18 -14 -18 -15 -1 0 15 -2 16
-13 5 -18 -18 -30 -68 -17 -68 6 0 8 -5 5 -10 -7 -11 22 -26 31 -17 3 3 7 20
9 38 3 19 12 39 21 46 11 8 14 19 9 34 -5 14 -4 19 4 15 18 -12 12 26 -6 40
-11 8 -13 13 -5 14 6 0 12 5 12 11 0 5 -6 7 -12 4 -7 -4 -5 0 5 8 12 10 15 17
7 22 -6 4 -9 13 -6 20 3 8 -2 19 -10 25 -18 16 -18 30 3 45 15 11 15 15 1 50
-9 23 -18 33 -22 26z"/>
<path d="M1813 1473 c4 -6 3 -13 -1 -15 -12 -4 -24 -118 -13 -118 5 0 9 -17 8
-37 -1 -21 2 -48 7 -60 6 -19 4 -22 -11 -16 -17 7 -17 6 0 -20 9 -15 13 -27 7
-27 -5 0 -10 -5 -10 -11 0 -6 6 -9 14 -6 10 4 12 0 8 -15 -3 -13 -7 -16 -12
-8 -4 7 -10 8 -13 4 -7 -13 10 -54 23 -54 5 0 10 -4 10 -10 0 -5 -8 -9 -17 -7
-10 1 -18 -2 -18 -8 0 -5 8 -9 18 -8 9 2 17 -2 17 -8 0 -5 -4 -7 -10 -4 -5 3
-10 1 -10 -6 0 -10 -3 -10 -12 -1 -17 17 -38 15 -38 -3 0 -9 9 -15 22 -15 17
0 19 -3 10 -12 -16 -16 -15 -28 3 -28 11 0 15 -11 15 -35 0 -29 -4 -35 -17
-33 -10 2 -21 8 -25 13 -4 6 -8 2 -8 -7 0 -21 -16 -24 -24 -5 -3 6 -3 0 -1
-14 1 -14 -1 -32 -6 -40 -6 -10 -9 -3 -9 23 0 20 -4 39 -9 42 -14 9 -21 -6
-10 -25 7 -14 5 -27 -6 -50 -9 -17 -14 -33 -11 -37 3 -3 6 1 6 8 0 7 3 11 6 7
11 -11 -28 -85 -43 -80 -7 3 -13 0 -13 -6 0 -6 5 -11 10 -11 6 0 10 -7 10 -15
0 -8 -6 -12 -12 -10 -7 3 -20 1 -28 -4 -12 -8 -12 -13 4 -30 15 -16 16 -21 5
-21 -10 -1 -8 -5 5 -15 15 -12 22 -12 27 -3 5 7 3 16 -4 20 -7 4 -3 6 10 6 17
-2 19 -6 13 -23 -4 -11 -5 -26 -2 -34 3 -9 -1 -11 -17 -6 -17 5 -21 2 -21 -15
0 -12 5 -18 10 -15 14 9 12 -6 -5 -35 l-15 -25 3 25 c1 16 -4 25 -15 28 -13 2
-18 -3 -18 -17 0 -12 -5 -21 -11 -21 -6 0 -8 9 -4 21 11 34 -13 13 -30 -27
-10 -24 -18 -32 -29 -28 -20 8 -20 -14 -1 -40 16 -22 20 -40 6 -32 -4 3 -6 -7
-3 -21 4 -23 9 -16 27 41 16 48 25 64 31 55 10 -15 13 -58 4 -57 -19 2 -26 -5
-28 -27 -1 -13 4 -28 11 -32 6 -4 18 -20 26 -36 18 -34 31 -35 31 -2 0 18 -4
23 -15 19 -8 -4 -15 -1 -15 5 0 6 9 11 21 11 15 0 19 5 17 22 -2 11 3 23 10
25 6 3 12 -2 12 -11 0 -8 5 -18 12 -22 8 -5 9 -2 5 9 -3 10 -2 17 2 17 5 0 12
-7 15 -16 7 -18 -19 -50 -29 -34 -13 21 -25 9 -24 -22 1 -18 3 -25 6 -16 5 19
43 25 43 8 0 -5 8 -10 17 -10 13 0 14 -3 5 -12 -7 -7 -12 -19 -12 -27 0 -11 5
-10 23 5 12 10 17 12 10 5 -6 -7 -9 -20 -5 -29 4 -11 1 -14 -11 -9 -22 8 -22
-9 1 -22 14 -8 15 -12 5 -22 -16 -16 -17 -46 -1 -55 7 -5 8 -3 3 6 -4 7 -2 16
6 21 22 14 33 10 19 -6 -10 -12 -10 -15 3 -15 8 0 17 -7 21 -15 7 -20 -40 -44
-81 -39 -38 4 -46 -4 -27 -31 13 -17 14 -17 14 -1 0 14 7 16 43 12 23 -3 45
-5 50 -5 14 -2 7 -21 -9 -21 -14 0 -14 -1 0 -16 24 -23 19 -32 -16 -30 -18 2
-32 7 -31 12 1 5 3 16 6 24 2 8 2 12 0 8 -3 -5 -9 -8 -14 -8 -6 0 -7 4 -4 10
3 5 2 10 -3 10 -6 0 -13 -7 -16 -16 -3 -8 -2 -13 3 -10 5 3 12 -6 15 -20 6
-23 11 -25 49 -23 23 2 51 9 62 16 26 17 38 16 31 -3 -5 -14 13 -15 163 -13
116 2 168 6 166 13 -15 49 -15 66 0 66 9 0 14 4 11 8 -2 4 0 14 5 22 7 11 11
12 17 3 6 -9 11 -7 19 7 10 15 9 19 -3 24 -8 3 -12 10 -9 16 3 5 -3 10 -14 10
-12 0 -18 -5 -16 -13 3 -6 -5 -18 -17 -26 -22 -13 -23 -13 -5 6 19 21 14 33
-15 33 -10 0 -18 7 -18 15 0 12 4 13 19 5 28 -15 41 -12 41 8 0 13 -2 14 -9 3
-7 -10 -11 -9 -23 8 -8 11 -18 18 -23 13 -4 -4 -5 1 -2 11 4 9 2 17 -3 17 -17
0 -11 27 11 51 l20 24 -6 -29 c-6 -26 -4 -28 10 -16 11 9 14 22 10 40 -4 19 0
31 15 45 21 19 21 19 16 -16 -2 -19 -7 -41 -10 -49 -4 -10 3 -25 19 -40 14
-13 25 -32 25 -42 0 -26 20 -22 21 5 3 50 11 86 27 114 15 26 15 33 2 33 -5 0
-10 -7 -10 -15 0 -9 -6 -12 -16 -8 -12 4 -13 8 -3 14 10 6 10 11 -1 24 -7 9
-19 14 -26 11 -15 -6 -39 13 -47 37 -6 16 -5 16 18 1 14 -9 25 -12 25 -6 0 5
-7 13 -16 16 -9 4 -14 13 -10 21 3 8 2 15 -2 15 -11 0 -52 -39 -52 -49 0 -5
-9 -11 -19 -14 -18 -4 -18 -2 -8 16 7 12 23 32 37 46 l25 23 -23 -5 c-18 -4
-22 -2 -18 9 7 18 -14 54 -32 54 -7 0 -10 5 -7 11 4 6 14 8 22 5 10 -4 13 -1
8 13 -3 11 -1 22 5 26 16 10 12 36 -7 51 -15 11 -16 15 -4 23 8 5 10 14 6 21
-5 9 -4 11 3 6 7 -4 12 -1 12 8 0 10 -6 13 -17 9 -14 -5 -16 -4 -8 8 14 18 10
80 -5 89 -9 6 -9 9 1 12 12 4 12 7 0 21 -7 10 -9 17 -4 17 5 0 9 8 10 18 1 9
4 36 6 59 3 24 1 45 -4 49 -6 3 -7 19 -4 35 4 18 3 29 -4 29 -6 0 -11 -6 -11
-12 0 -9 -4 -8 -10 2 -7 11 -5 19 8 30 10 9 22 29 26 45 7 30 7 30 -11 10 -25
-27 -45 -74 -37 -87 4 -6 1 -14 -7 -18 -16 -10 -20 -51 -7 -67 14 -18 31 -16
25 1 -4 10 -1 13 9 9 7 -3 14 -14 14 -25 0 -17 -5 -20 -28 -15 -36 7 -62 -7
-44 -25 9 -9 12 -9 12 0 0 7 4 12 9 12 5 0 5 -16 0 -37 -9 -41 -3 -56 11 -33
8 13 10 13 10 -1 0 -9 -7 -22 -15 -29 -8 -7 -15 -18 -14 -24 3 -23 -1 -36 -11
-36 -5 0 -10 7 -10 16 0 8 -4 12 -10 9 -12 -8 10 -45 27 -45 7 0 13 -6 13 -14
0 -17 -28 -41 -37 -32 -4 4 -1 11 7 16 18 11 8 23 -13 15 -8 -4 -18 -18 -22
-33 -4 -15 -10 -21 -12 -14 -4 10 -9 8 -19 -5 -18 -25 -17 -35 4 -29 11 4 20
-2 27 -17 14 -31 7 -77 -12 -77 -15 0 -15 12 2 52 5 13 2 15 -14 11 -25 -6
-38 34 -21 67 10 18 8 24 -7 36 -16 13 -16 13 0 8 18 -6 24 10 7 21 -5 3 -7
12 -3 20 3 9 -1 15 -10 15 -19 0 -31 33 -22 61 4 12 3 19 -2 16 -5 -3 -7 7 -5
24 2 16 -1 36 -8 44 -7 8 -10 21 -7 29 3 8 3 17 -1 20 -7 8 -12 39 -13 94 0
23 -5 42 -10 42 -6 0 -7 5 -3 12 14 22 3 119 -17 155 -17 30 -18 35 -4 29 14
-5 15 -1 9 27 -4 17 -7 47 -6 65 1 18 -3 32 -9 32 -6 0 -8 7 -5 17 4 10 4 14
0 10 -4 -4 -14 -1 -22 6 -11 8 -14 8 -9 0z"/>
<path d="M11384 618 c-3 -5 0 -16 8 -25 11 -15 11 -16 -5 -10 -15 6 -16 4 -7
-14 9 -16 7 -23 -12 -39 -13 -11 -26 -19 -29 -20 -3 0 -4 -11 -1 -25 2 -15 0
-25 -7 -25 -6 0 -11 5 -11 11 0 5 -5 7 -11 3 -6 -3 -7 -9 -2 -13 5 -3 8 -18 8
-33 -1 -30 -35 -64 -46 -46 -10 16 -21 -9 -14 -32 4 -11 13 -20 21 -20 8 0 13
4 9 9 -3 5 0 13 6 17 9 5 10 -2 6 -25 -5 -21 -3 -30 4 -25 6 3 21 -4 34 -16
14 -13 29 -19 36 -15 8 5 10 4 5 -3 -4 -7 -15 -12 -24 -12 -10 0 -28 -7 -40
-16 -12 -8 -22 -11 -22 -4 0 7 -7 6 -19 -2 -11 -7 -17 -16 -15 -20 3 -5 -2
-16 -11 -25 -13 -13 -14 -18 -3 -24 7 -5 20 -9 28 -9 9 0 24 -14 33 -30 10
-17 22 -30 28 -30 5 0 9 -5 9 -11 0 -6 -5 -7 -12 -2 -7 4 -21 6 -32 4 -11 -1
-16 2 -12 8 4 6 3 11 -3 11 -18 0 -30 -34 -19 -54 9 -15 7 -22 -7 -33 -22 -15
-13 -29 12 -18 30 13 47 14 59 4 14 -12 302 -10 310 2 3 5 -1 9 -9 9 -8 0 -22
10 -31 22 -16 23 -17 23 -11 1 3 -12 2 -24 -3 -27 -6 -3 -12 5 -14 19 -3 13 0
26 6 29 7 3 6 8 -4 15 -13 9 -13 11 1 11 22 0 28 29 12 60 -7 15 -13 19 -14
10 0 -10 -3 -8 -9 5 -5 11 -9 23 -9 28 -1 10 53 -4 57 -14 2 -5 10 -2 18 5 19
19 18 32 -1 16 -12 -10 -15 -10 -15 0 0 7 -7 10 -16 6 -26 -10 -51 11 -59 50
-3 20 -14 48 -23 62 -16 25 -16 26 2 19 17 -7 18 -4 13 30 -4 20 -2 42 4 49 7
8 7 14 -1 19 -5 3 -10 0 -10 -7 0 -9 -3 -9 -10 2 -5 8 -10 32 -10 52 0 29 -3
36 -15 32 -21 -8 -19 9 5 39 26 33 25 40 -4 33 -19 -5 -29 0 -40 16 -16 22
-53 32 -62 16z"/>
<path d="M12547 279 c-9 -10 -24 -19 -32 -19 -8 0 -15 -7 -15 -15 0 -9 6 -12
15 -9 9 4 16 0 17 -7 0 -8 2 -18 3 -24 2 -5 3 -16 4 -23 0 -7 6 -10 11 -7 6 4
10 -5 10 -20 0 -24 -3 -26 -30 -20 -23 5 -30 3 -30 -9 0 -9 -5 -15 -11 -14 -6
2 -14 -3 -16 -9 -3 -7 0 -13 6 -13 6 0 11 -4 11 -10 0 -5 -6 -7 -13 -4 -15 5
-57 -39 -57 -60 0 -11 12 -15 42 -14 l41 0 -23 18 c-22 17 -18 28 8 24 6 -1
19 -2 27 -3 8 0 24 -10 35 -21 11 -11 26 -17 35 -14 23 9 12 29 -18 32 -16 2
-27 10 -27 18 0 9 7 14 17 12 15 -2 17 3 15 32 -2 23 0 30 6 22 5 -7 15 -12
22 -10 8 2 17 -9 21 -27 5 -23 7 -25 8 -8 2 36 -20 73 -43 73 -19 0 -19 1 -3
18 16 15 19 15 27 2 6 -9 10 -10 10 -3 0 6 -5 15 -10 18 -6 4 -7 11 -4 17 4 6
-1 17 -11 25 -11 7 -14 13 -8 13 6 0 13 7 16 14 4 11 1 13 -10 9 -9 -4 -14 -2
-11 3 3 5 0 14 -7 21 -9 8 -16 7 -28 -8z"/>
</g>
</svg>
